<svg id="Camada_1" data-name="Camada 1" xmlns="http://www.w3.org/2000/svg" viewBox="0 0 366.69 436.7"><defs><style>.cls-1{opacity:0.87;}.cls-2{fill:#dca4c9;}.cls-3{fill:#ec008c;}</style></defs><title>icon</title><g class="cls-1"><path class="cls-2" d="M119.84,328h5.53v9.65c0,1.53.61,2.17,1.76,2.17,2.36,0,3.48-2.08,3.48-4.54V328h5.53v16.45h-5.31V343a8,8,0,0,1,.07-1h-.07a5.7,5.7,0,0,1-5.14,2.85c-3.26,0-5.85-1.54-5.85-6.17Z"/><path class="cls-2" d="M139.84,328h5.31v1.44a8,8,0,0,1-.07,1h.07a5.8,5.8,0,0,1,5.24-2.84c3.32,0,5.91,1.53,5.91,6.16v10.67h-5.53V334.8c0-1.53-.6-2.17-1.82-2.17-2.46,0-3.58,2.05-3.58,4.38v7.44h-5.53Z"/><path class="cls-2" d="M159.85,328h5.53v16.45h-5.53Zm.06-6.39h5.4v4.31h-5.4Z"/><path class="cls-2" d="M175.73,327.62a6.08,6.08,0,0,1,4.31,1.31h.06s0-.32,0-.74v-6.58h5.53v22.84h-5.18v-1.08c0-.51,0-.93,0-.93h-.07a5.54,5.54,0,0,1-4.76,2.4c-4.47,0-7.41-3.52-7.41-8.63S171.35,327.62,175.73,327.62ZM177,340.27c1.67,0,3.23-1.22,3.23-4.06,0-2-1-3.93-3.23-3.93-1.72,0-3.22,1.41-3.22,3.93S175.09,340.27,177,340.27Z"/><path class="cls-2" d="M197.46,334.2h.47v-.29c0-1.37-1.11-1.82-2.33-1.82a8.63,8.63,0,0,0-4.54,1.56l-1.91-3.89a12.63,12.63,0,0,1,7-2.14c4.54,0,7.35,2.52,7.35,6.71v10.12h-5.05v-1a8,8,0,0,1,.07-1h-.07a6,6,0,0,1-4.89,2.4,5,5,0,0,1-5.36-5C188.16,335.41,193.4,334.2,197.46,334.2Zm-2.27,6.52a3,3,0,0,0,2.81-2.91v-.45h-.51c-1.7,0-3.87.45-3.87,1.95A1.41,1.41,0,0,0,195.19,340.72Z"/><path class="cls-2" d="M213.62,327.62a6.11,6.11,0,0,1,4.32,1.31H218s0-.32,0-.74v-6.58h5.53v22.84h-5.18v-1.08c0-.51,0-.93,0-.93h-.06a5.54,5.54,0,0,1-4.76,2.4c-4.48,0-7.42-3.52-7.42-8.63S209.25,327.62,213.62,327.62Zm1.28,12.65c1.66,0,3.23-1.22,3.23-4.06,0-2-1.06-3.93-3.23-3.93-1.72,0-3.23,1.41-3.23,3.93S213,340.27,214.9,340.27Z"/><path class="cls-2" d="M234.84,327.62c4.86,0,7.6,3.38,7.6,7.95a16.76,16.76,0,0,1-.12,1.73H231.93a3.68,3.68,0,0,0,3.84,2.94,8.47,8.47,0,0,0,4.53-1.66l2,3.86a11.24,11.24,0,0,1-7,2.4c-5.88,0-9-4.25-9-8.63A8.19,8.19,0,0,1,234.84,327.62Zm2.14,6.51a2.28,2.28,0,0,0-2.27-2.46,2.7,2.7,0,0,0-2.65,2.46Z"/><path class="cls-2" d="M246.44,338.8a7.23,7.23,0,0,0,4.47,1.66c1.12,0,1.5-.35,1.5-.86,0-1.76-7.7-1.38-7.7-6.78,0-3.38,3-5.2,6.84-5.2a9.25,9.25,0,0,1,5.88,1.88l-1.89,3.83a7.49,7.49,0,0,0-4.15-1.34c-1.18,0-1.53.35-1.53.8,0,1.73,7.7,1.31,7.7,6.65,0,3.06-2.56,5.4-6.78,5.4a10.23,10.23,0,0,1-6.71-2.43Z"/><path class="cls-2" d="M107,360.25c4.86,0,7.6,3.38,7.6,7.95a16.76,16.76,0,0,1-.12,1.73H104.07a3.68,3.68,0,0,0,3.84,2.94,8.47,8.47,0,0,0,4.53-1.66l2,3.86a11.18,11.18,0,0,1-7,2.4c-5.88,0-9-4.25-9-8.63A8.19,8.19,0,0,1,107,360.25Zm2.14,6.52a2.28,2.28,0,0,0-2.27-2.46,2.7,2.7,0,0,0-2.65,2.46Z"/><path class="cls-2" d="M118.58,371.43a7.23,7.23,0,0,0,4.47,1.66c1.12,0,1.5-.35,1.5-.86,0-1.76-7.7-1.37-7.7-6.77,0-3.39,3-5.21,6.84-5.21a9.25,9.25,0,0,1,5.88,1.88L127.69,366a7.47,7.47,0,0,0-4.16-1.34c-1.18,0-1.53.35-1.53.79,0,1.73,7.7,1.31,7.7,6.65,0,3.07-2.56,5.4-6.78,5.4a10.23,10.23,0,0,1-6.71-2.43Z"/><path class="cls-2" d="M132.51,360.63h5v.83a8.83,8.83,0,0,1-.07,1.06h.07a6.08,6.08,0,0,1,5-2.27c4.47,0,7.41,3.51,7.41,8.62s-3.29,8.6-7.67,8.6A6.32,6.32,0,0,1,138,375.9H138a13,13,0,0,1,.07,1.41v6.17h-5.53Zm8.6,12.27c1.72,0,3.22-1.4,3.22-3.93s-1.31-4.06-3.22-4.06c-1.67,0-3.23,1.22-3.23,4.06C137.88,371,138.93,372.9,141.11,372.9Z"/><path class="cls-2" d="M160.88,366.83h.48v-.29c0-1.37-1.11-1.82-2.33-1.82a8.56,8.56,0,0,0-4.54,1.57l-1.91-3.9a12.63,12.63,0,0,1,7-2.14c4.54,0,7.35,2.52,7.35,6.71v10.13h-5v-1a8,8,0,0,1,.07-1h-.07a6,6,0,0,1-4.88,2.4,5,5,0,0,1-5.37-5C151.59,368,156.83,366.83,160.88,366.83Zm-2.26,6.52a3,3,0,0,0,2.81-2.91V370h-.51c-1.7,0-3.87.45-3.87,1.95A1.41,1.41,0,0,0,158.62,373.35Z"/><path class="cls-2" d="M170.41,360.63h5.3v1.44a9.26,9.26,0,0,1-.06,1h.06a5.8,5.8,0,0,1,5.24-2.84c3.32,0,5.91,1.53,5.91,6.17v10.67h-5.53v-9.65c0-1.54-.6-2.18-1.82-2.18-2.46,0-3.58,2.05-3.58,4.38v7.45h-5.52Z"/><path class="cls-2" d="M190.41,354.24h5.53v7.22a13,13,0,0,1-.07,1.41h.07a5.63,5.63,0,0,1,5-2.62c3.33,0,5.92,1.53,5.92,6.17v10.67h-5.53v-9.65c0-1.54-.61-2.18-1.82-2.18-2.4,0-3.58,1.89-3.58,4.41v7.42h-5.53Z"/><path class="cls-2" d="M218.56,366.83H219v-.29c0-1.37-1.12-1.82-2.33-1.82a8.56,8.56,0,0,0-4.54,1.57l-1.92-3.9a12.66,12.66,0,0,1,7-2.14c4.53,0,7.35,2.52,7.35,6.71v10.13h-5v-1a9.33,9.33,0,0,1,.06-1h-.06a6,6,0,0,1-4.89,2.4,5,5,0,0,1-5.37-5C209.26,368,214.5,366.83,218.56,366.83Zm-2.27,6.52a3,3,0,0,0,2.81-2.91V370h-.51c-1.69,0-3.86.45-3.86,1.95A1.4,1.4,0,0,0,216.29,373.35Z"/><path class="cls-2" d="M234.73,360.25a6.07,6.07,0,0,1,4.31,1.31h.07a6.63,6.63,0,0,1,0-.74v-6.58h5.53v22.85h-5.18V376c0-.51,0-.93,0-.93h-.07a5.54,5.54,0,0,1-4.76,2.4c-4.47,0-7.41-3.51-7.41-8.63S230.35,360.25,234.73,360.25ZM236,372.9c1.66,0,3.22-1.21,3.22-4.06,0-2-1-3.93-3.22-3.93-1.73,0-3.23,1.41-3.23,3.93S234.09,372.9,236,372.9Z"/><path class="cls-2" d="M256.46,366.83h.48v-.29c0-1.37-1.12-1.82-2.34-1.82a8.56,8.56,0,0,0-4.53,1.57l-1.92-3.9a12.63,12.63,0,0,1,7-2.14c4.54,0,7.35,2.52,7.35,6.71v10.13h-5v-1a9.33,9.33,0,0,1,.06-1h-.06a6,6,0,0,1-4.89,2.4,5,5,0,0,1-5.37-5C247.16,368,252.4,366.83,256.46,366.83Zm-2.27,6.52a3,3,0,0,0,2.81-2.91V370h-.51c-1.7,0-3.87.45-3.87,1.95A1.41,1.41,0,0,0,254.19,373.35Z"/><path class="cls-2" d="M267.1,371.43a7.21,7.21,0,0,0,4.47,1.66c1.12,0,1.5-.35,1.5-.86,0-1.76-7.7-1.37-7.7-6.77,0-3.39,3-5.21,6.84-5.21a9.25,9.25,0,0,1,5.88,1.88L276.2,366a7.43,7.43,0,0,0-4.15-1.34c-1.18,0-1.53.35-1.53.79,0,1.73,7.7,1.31,7.7,6.65,0,3.07-2.56,5.4-6.78,5.4a10.21,10.21,0,0,1-6.71-2.43Z"/><path class="cls-2" d="M120.51,393.27h5v.83a8.77,8.77,0,0,1-.07,1h.07a6.12,6.12,0,0,1,5-2.27c4.48,0,7.41,3.52,7.41,8.63s-3.29,8.59-7.66,8.59a6.36,6.36,0,0,1-4.19-1.56H126s.06.57.06,1.4v6.17h-5.53Zm8.6,12.27c1.72,0,3.22-1.41,3.22-3.94s-1.31-4.05-3.22-4.05c-1.66,0-3.23,1.21-3.23,4.05C125.88,403.59,126.93,405.54,129.11,405.54Z"/><path class="cls-2" d="M148.38,392.88c4.85,0,7.6,3.39,7.6,8a14.22,14.22,0,0,1-.13,1.72H145.47a3.66,3.66,0,0,0,3.83,2.94,8.42,8.42,0,0,0,4.54-1.66l2,3.87a11.21,11.21,0,0,1-7,2.39c-5.87,0-9-4.25-9-8.62C139.81,396.65,143.07,392.88,148.38,392.88Zm2.14,6.52a2.29,2.29,0,0,0-2.27-2.46,2.69,2.69,0,0,0-2.65,2.46Z"/><path class="cls-2" d="M158.82,386.87h5.53v16.05c0,1.56.29,2.1,1.54,2.1a5.9,5.9,0,0,0,.67,0v4.79a15.49,15.49,0,0,1-1.67.1c-2.93,0-6.07-.7-6.07-6.23Z"/><path class="cls-2" d="M177.55,392.88c5.21,0,9.36,3.49,9.36,8.66s-4.15,8.56-9.33,8.56-9.33-3.41-9.33-8.56S172.4,392.88,177.55,392.88Zm0,12.62a3.72,3.72,0,0,0,3.74-4,3.75,3.75,0,1,0-7.48,0A3.72,3.72,0,0,0,177.58,405.5Z"/><path class="cls-2" d="M197.68,393.27h5v.83a10.21,10.21,0,0,1-.06,1h.06a6.14,6.14,0,0,1,5-2.27c4.47,0,7.41,3.52,7.41,8.63s-3.29,8.59-7.67,8.59a6.36,6.36,0,0,1-4.18-1.56h-.07a12.71,12.71,0,0,1,.07,1.4v6.17h-5.53Zm8.59,12.27c1.73,0,3.23-1.41,3.23-3.94s-1.31-4.05-3.23-4.05c-1.66,0-3.22,1.21-3.22,4.05C203.05,403.59,204.1,405.54,206.27,405.54Z"/><path class="cls-2" d="M226.05,399.46h.48v-.28c0-1.38-1.12-1.82-2.33-1.82a8.63,8.63,0,0,0-4.54,1.56l-1.91-3.9a12.71,12.71,0,0,1,7-2.14c4.54,0,7.35,2.53,7.35,6.71v10.13H227v-1a8,8,0,0,1,.07-1H227a6,6,0,0,1-4.89,2.39,5,5,0,0,1-5.37-5C216.75,400.68,222,399.46,226.05,399.46ZM223.78,406a3,3,0,0,0,2.82-2.9v-.45h-.52c-1.69,0-3.86.45-3.86,1.95A1.4,1.4,0,0,0,223.78,406Z"/><path class="cls-2" d="M235.58,393.27h5.52v16.45h-5.52Zm3-6.4h5.46l-3.77,4.8H236Z"/><path class="cls-2" d="M245.93,404.07a7.23,7.23,0,0,0,4.47,1.66c1.12,0,1.5-.36,1.5-.87,0-1.75-7.7-1.37-7.7-6.77,0-3.39,3-5.21,6.84-5.21a9.2,9.2,0,0,1,5.88,1.89L255,398.6a7.41,7.41,0,0,0-4.15-1.34c-1.18,0-1.53.35-1.53.8,0,1.72,7.7,1.31,7.7,6.64,0,3.07-2.56,5.4-6.78,5.4a10.2,10.2,0,0,1-6.71-2.42Z"/></g><g class="cls-1"><path class="cls-2" d="M78,63.55a9.2,9.2,0,0,0,5.49,2.36c1.57,0,2.37-.7,2.37-1.6,0-3.22-10.1-2.71-10.1-9.87,0-4.22,3.49-7,8.28-7A10.77,10.77,0,0,1,91.19,50L88.83,54.6a8.24,8.24,0,0,0-5-2c-1.69,0-2.43.7-2.43,1.63,0,3.26,10.1,2.49,10.1,9.71,0,3.83-2.84,7.13-8.12,7.13a11.83,11.83,0,0,1-8.27-3.26Z"/><path class="cls-2" d="M102.67,53.83c5.2,0,9.36,3.49,9.36,8.66s-4.16,8.57-9.33,8.57-9.33-3.42-9.33-8.57S97.52,53.83,102.67,53.83Zm0,12.62a3.72,3.72,0,0,0,3.74-4,3.75,3.75,0,1,0-7.48,0A3.72,3.72,0,0,0,102.7,66.45Z"/><path class="cls-2" d="M114.81,54.22h5.3v1.43a9.33,9.33,0,0,1-.06,1h.06A5.86,5.86,0,0,1,125,53.83a4.76,4.76,0,0,1,4.6,2.78h.07a6.36,6.36,0,0,1,5.27-2.78c3,0,5.33,1.63,5.33,6.17V70.67h-5.52V60.93c0-1.22-.23-2.08-1.28-2.08-2.4,0-3.16,2.4-3.16,4.86v7h-5.53V60.93c0-1.22-.23-2.08-1.28-2.08-2.52,0-3.16,2.59-3.16,4.86v7h-5.53Z"/><path class="cls-2" d="M152.23,53.83c5.2,0,9.36,3.49,9.36,8.66s-4.16,8.57-9.33,8.57-9.33-3.42-9.33-8.57S147.08,53.83,152.23,53.83Zm0,12.62a3.72,3.72,0,0,0,3.74-4,3.75,3.75,0,1,0-7.48,0A3.72,3.72,0,0,0,152.26,66.45Z"/><path class="cls-2" d="M165.36,65a7.23,7.23,0,0,0,4.47,1.66c1.12,0,1.5-.35,1.5-.86,0-1.76-7.7-1.38-7.7-6.78,0-3.39,3-5.21,6.84-5.21a9.26,9.26,0,0,1,5.88,1.89l-1.89,3.83a7.49,7.49,0,0,0-4.15-1.34c-1.18,0-1.53.35-1.53.8,0,1.72,7.7,1.31,7.7,6.65,0,3.06-2.56,5.4-6.78,5.4A10.23,10.23,0,0,1,163,68.63Z"/><path class="cls-2" d="M187.28,54.22h5.3v1.43a9.33,9.33,0,0,1-.06,1h.06a5.86,5.86,0,0,1,4.89-2.85,4.76,4.76,0,0,1,4.6,2.78h.07a6.36,6.36,0,0,1,5.27-2.78c3,0,5.33,1.63,5.33,6.17V70.67h-5.52V60.93c0-1.22-.23-2.08-1.28-2.08-2.4,0-3.16,2.4-3.16,4.86v7h-5.53V60.93c0-1.22-.23-2.08-1.28-2.08-2.52,0-3.16,2.59-3.16,4.86v7h-5.53Z"/><path class="cls-2" d="M224.47,60.42H225v-.29c0-1.38-1.12-1.82-2.33-1.82a8.63,8.63,0,0,0-4.54,1.56L216.16,56a12.77,12.77,0,0,1,7-2.14c4.54,0,7.35,2.53,7.35,6.71V70.67h-5v-1a9.26,9.26,0,0,1,.06-1h-.06a6.05,6.05,0,0,1-4.89,2.4,5,5,0,0,1-5.37-5C215.17,61.63,220.41,60.42,224.47,60.42Zm-2.27,6.51A3,3,0,0,0,225,64v-.45h-.51c-1.69,0-3.86.45-3.86,2A1.4,1.4,0,0,0,222.2,66.93Z"/><path class="cls-2" d="M234,54.22h5.53V70.67H234Zm.07-6.39h5.4v4.31h-5.4Z"/><path class="cls-2" d="M244.35,65a7.21,7.21,0,0,0,4.47,1.66c1.12,0,1.5-.35,1.5-.86,0-1.76-7.7-1.38-7.7-6.78,0-3.39,3-5.21,6.84-5.21a9.26,9.26,0,0,1,5.88,1.89l-1.89,3.83a7.51,7.51,0,0,0-4.15-1.34c-1.18,0-1.53.35-1.53.8,0,1.72,7.7,1.31,7.7,6.65,0,3.06-2.56,5.4-6.78,5.4A10.21,10.21,0,0,1,242,68.63Z"/><path class="cls-2" d="M272.91,53.83a6.15,6.15,0,0,1,4.32,1.31h.06s0-.32,0-.73V47.83h5.53V70.67h-5.18V69.59c0-.52,0-.93,0-.93h-.06a5.58,5.58,0,0,1-4.76,2.4c-4.48,0-7.42-3.52-7.42-8.63S268.53,53.83,272.91,53.83Zm1.28,12.66c1.66,0,3.23-1.22,3.23-4.06,0-2-1.06-3.93-3.23-3.93-1.73,0-3.23,1.4-3.23,3.93S272.27,66.49,274.19,66.49Z"/><path class="cls-2" d="M294.13,53.83c4.86,0,7.6,3.39,7.6,8a16.57,16.57,0,0,1-.12,1.72H291.22a3.68,3.68,0,0,0,3.84,2.94,8.39,8.39,0,0,0,4.53-1.66l2.05,3.87a11.24,11.24,0,0,1-7,2.4c-5.88,0-9-4.25-9-8.63C285.57,57.6,288.83,53.83,294.13,53.83Zm2.14,6.52A2.28,2.28,0,0,0,294,57.89a2.7,2.7,0,0,0-2.65,2.46Z"/></g><g class="cls-1"><path class="cls-3" d="M62.58,188.22c-10.74-9.61-18.37-21.76-18.37-38.71,0-29.39,20.63-58.21,67.81-58.21,37.58,0,68.38,20.91,68.38,58.49,0,20.35-14.41,39.84-19.78,46.34,13.57,9.33,23.74,22,23.74,42.39,0,30.8-24.87,61.59-74.88,61.59-49.17,0-74.88-30.51-74.88-62.72C34.6,212.52,54.38,194.44,62.58,188.22Zm46.9,68.38c15,0,24.3-7.35,24.3-20.63,0-11.58-17.8-18.36-37.58-27.69-4.8,5.09-11,13.85-11,24.87C85.18,246.14,95.92,256.6,109.48,256.6Zm22.6-103.14c0-11.3-7.91-18.64-21.19-18.64-12.71,0-18.36,7.06-18.36,15.82,0,13.28,14.69,20.34,32.21,27.69A47.14,47.14,0,0,0,132.08,153.46Z"/><path class="cls-3" d="M189.16,195.28c0-57.92,18.65-104,76-104s76,46.06,76,104-18.65,104.83-76,104.83S189.16,253.21,189.16,195.28Zm101.16,0c0-32.77-5.65-58.77-25.15-58.77S240,162.51,240,195.28c0,33.06,5.65,59.62,25.15,59.62S290.32,228.34,290.32,195.28Z"/></g></svg>