<svg id="Camada_1" data-name="Camada 1" xmlns="http://www.w3.org/2000/svg" viewBox="0 0 270.57 148.23"><defs><style>.cls-1{fill:#862677;}.cls-2{fill:#fff;}</style></defs><title>lAYOUT</title><rect class="cls-1" width="270.57" height="148.23" rx="43.2"/><path class="cls-2" d="M51.94,80.24H45.6V75.86H63.4v4.38H57.06V96.76H51.94Z"/><path class="cls-2" d="M63.61,81.71h4.85v2.54a7.83,7.83,0,0,1-.06.94h.06a5.23,5.23,0,0,1,4.8-3.75,3.44,3.44,0,0,1,.58.06v5a4.56,4.56,0,0,0-1-.09c-2.81,0-4.15,1.79-4.15,4.54v5.84H63.61Z"/><path class="cls-2" d="M83.05,81.36c4.45,0,7,3.09,7,7.27a13.83,13.83,0,0,1-.12,1.58h-9.5A3.36,3.36,0,0,0,83.9,92.9a7.74,7.74,0,0,0,4.15-1.52l1.87,3.54a10.24,10.24,0,0,1-6.43,2.19c-5.38,0-8.27-3.88-8.27-7.89A7.49,7.49,0,0,1,83.05,81.36Zm2,6a2.09,2.09,0,0,0-2.07-2.25,2.47,2.47,0,0,0-2.43,2.25Z"/><path class="cls-2" d="M92.64,81.71H97.7V96.76H92.64Zm.06-5.85h4.94v4H92.7Z"/><path class="cls-2" d="M101.09,81.71H106V83a7.83,7.83,0,0,1-.06.94H106a5.3,5.3,0,0,1,4.79-2.6c3,0,5.41,1.4,5.41,5.64v9.76h-5.06V87.93c0-1.4-.55-2-1.66-2-2.25,0-3.28,1.87-3.28,4v6.81h-5.06Z"/><path class="cls-2" d="M126.85,87.38h.44v-.26c0-1.26-1-1.67-2.13-1.67A7.88,7.88,0,0,0,121,86.88l-1.76-3.57a11.66,11.66,0,0,1,6.38-2c4.15,0,6.72,2.3,6.72,6.13v9.27h-4.62v-.9a7.83,7.83,0,0,1,.06-.94h-.06a5.53,5.53,0,0,1-4.47,2.19,4.6,4.6,0,0,1-4.91-4.59C118.35,88.49,123.14,87.38,126.85,87.38Zm-2.07,6a2.75,2.75,0,0,0,2.57-2.66v-.41h-.47c-1.55,0-3.53.41-3.53,1.79A1.28,1.28,0,0,0,124.78,93.34Z"/><path class="cls-2" d="M135.57,81.71h4.85V83a7.83,7.83,0,0,1-.06.94h.06a5.37,5.37,0,0,1,4.48-2.6,4.35,4.35,0,0,1,4.21,2.54h0A5.82,5.82,0,0,1,154,81.36c2.75,0,4.88,1.49,4.88,5.64v9.76h-5.06V87.85c0-1.12-.2-1.9-1.17-1.9-2.19,0-2.89,2.19-2.89,4.44v6.37h-5.06V87.85c0-1.12-.2-1.9-1.17-1.9-2.31,0-2.89,2.36-2.89,4.44v6.37h-5.06Z"/><path class="cls-2" d="M169.14,81.36c4.44,0,7,3.09,7,7.27a13.83,13.83,0,0,1-.12,1.58h-9.5A3.36,3.36,0,0,0,170,92.9a7.74,7.74,0,0,0,4.15-1.52L176,94.92a10.26,10.26,0,0,1-6.43,2.19c-5.38,0-8.28-3.88-8.28-7.89A7.49,7.49,0,0,1,169.14,81.36Zm2,6A2.09,2.09,0,0,0,169,85.07a2.48,2.48,0,0,0-2.43,2.25Z"/><path class="cls-2" d="M178.73,81.71h4.85V83a7.83,7.83,0,0,1-.06.94h.06a5.32,5.32,0,0,1,4.8-2.6c3,0,5.41,1.4,5.41,5.64v9.76h-5.06V87.93c0-1.4-.56-2-1.67-2-2.25,0-3.27,1.87-3.27,4v6.81h-5.06Z"/><path class="cls-2" d="M197.91,85.92H196V82h2.08V77.64H203V82h3.16v4H203v4.62c0,1.69,1.72,1.92,2.69,1.92.17,0,.35,0,.67,0v4.38c-.38,0-.79.09-1.37.09-2.4,0-7.05-.64-7.05-5.7Z"/><path class="cls-2" d="M216.6,81.36c4.76,0,8.56,3.18,8.56,7.92s-3.8,7.83-8.54,7.83-8.53-3.12-8.53-7.83S211.89,81.36,216.6,81.36Zm0,11.54a3.4,3.4,0,0,0,3.43-3.62,3.44,3.44,0,1,0-6.85,0A3.4,3.4,0,0,0,216.62,92.9Z"/><path class="cls-2" d="M40.05,109.13c4.45,0,7,3.1,7,7.28a14.18,14.18,0,0,1-.12,1.58h-9.5a3.36,3.36,0,0,0,3.51,2.69,7.74,7.74,0,0,0,4.15-1.52l1.87,3.53a10.19,10.19,0,0,1-6.43,2.2c-5.38,0-8.27-3.89-8.27-7.9A7.49,7.49,0,0,1,40.05,109.13Zm2,6a2.09,2.09,0,0,0-2.07-2.25,2.47,2.47,0,0,0-2.43,2.25Z"/><path class="cls-2" d="M57,113.69H55.05v-4h2.08v-4.32H62v4.32H65.2v4H62v4.62c0,1.69,1.73,1.93,2.69,1.93a6.17,6.17,0,0,0,.67,0v4.38c-.38,0-.79.09-1.37.09-2.4,0-7.05-.64-7.05-5.7Z"/><path class="cls-2" d="M75.67,109.13c4.76,0,8.56,3.19,8.56,7.92s-3.8,7.84-8.53,7.84-8.54-3.13-8.54-7.84S71,109.13,75.67,109.13Zm0,11.55a3.41,3.41,0,0,0,3.42-3.63,3.43,3.43,0,1,0-6.84,0A3.41,3.41,0,0,0,75.7,120.68Z"/><path class="cls-2" d="M87.54,113.69H85.61v-4h2.08v-4.32H92.6v4.32h3.16v4H92.6v4.62c0,1.69,1.72,1.93,2.69,1.93a6.27,6.27,0,0,0,.67,0v4.38c-.38,0-.79.09-1.37.09-2.4,0-7-.64-7-5.7Z"/><path class="cls-2" d="M106.14,115.15h.44v-.26c0-1.26-1-1.67-2.14-1.67a8,8,0,0,0-4.15,1.43l-1.75-3.56a11.51,11.51,0,0,1,6.37-2c4.15,0,6.72,2.31,6.72,6.14v9.27H107v-.91a7.83,7.83,0,0,1,.06-.94H107a5.5,5.5,0,0,1-4.47,2.2,4.61,4.61,0,0,1-4.91-4.59C97.63,116.26,102.42,115.15,106.14,115.15Zm-2.08,6a2.76,2.76,0,0,0,2.57-2.67v-.4h-.46c-1.55,0-3.54.4-3.54,1.78A1.29,1.29,0,0,0,104.06,121.12Z"/><path class="cls-2" d="M114.82,103.63h5.06v14.68c0,1.43.26,1.93,1.4,1.93a4.88,4.88,0,0,0,.62,0v4.38c-.35,0-.88.09-1.52.09-2.69,0-5.56-.64-5.56-5.7Z"/><path class="cls-2" d="M132.63,119.36a6.58,6.58,0,0,0,4.09,1.52c1,0,1.38-.32,1.38-.79,0-1.61-7-1.26-7-6.2,0-3.1,2.78-4.76,6.26-4.76a8.5,8.5,0,0,1,5.38,1.72L141,114.36a6.83,6.83,0,0,0-3.8-1.23c-1.08,0-1.4.33-1.4.74,0,1.57,7.05,1.19,7.05,6.08,0,2.8-2.34,4.94-6.2,4.94a9.28,9.28,0,0,1-6.14-2.23Z"/><path class="cls-2" d="M145.23,109.48h5.06v8.83c0,1.4.56,2,1.61,2,2.16,0,3.19-1.9,3.19-4.15v-6.67h5.06v15.06h-4.86v-1.32a7.55,7.55,0,0,1,.06-.93h-.06a5.23,5.23,0,0,1-4.7,2.6c-3,0-5.36-1.41-5.36-5.65Z"/><path class="cls-2" d="M163.54,109.48h4.56v.76a8.4,8.4,0,0,1-.06,1h.06a5.6,5.6,0,0,1,4.56-2.07c4.09,0,6.78,3.21,6.78,7.89s-3,7.87-7,7.87a5.79,5.79,0,0,1-3.83-1.44h-.06a12.69,12.69,0,0,1,.06,1.29v5.64h-5.06Zm7.86,11.23c1.58,0,3-1.29,3-3.6s-1.2-3.71-3-3.71c-1.52,0-3,1.11-3,3.71C168.45,118.92,169.42,120.71,171.4,120.71Z"/><path class="cls-2" d="M189.71,109.13c4.76,0,8.56,3.19,8.56,7.92s-3.8,7.84-8.53,7.84-8.54-3.13-8.54-7.84S185,109.13,189.71,109.13Zm0,11.55a3.41,3.41,0,0,0,3.42-3.63,3.43,3.43,0,1,0-6.84,0A3.41,3.41,0,0,0,189.74,120.68Z"/><path class="cls-2" d="M200.82,109.48h4.85V112a9.37,9.37,0,0,1,0,.94h0a5.23,5.23,0,0,1,4.8-3.74,3.44,3.44,0,0,1,.58.06v5a5.38,5.38,0,0,0-1-.08c-2.81,0-4.15,1.78-4.15,4.53v5.85h-5.06Z"/><path class="cls-2" d="M214.16,113.69h-1.93v-4h2.07v-4.32h4.91v4.32h3.16v4h-3.16v4.62c0,1.69,1.73,1.93,2.69,1.93a6.43,6.43,0,0,0,.68,0v4.38c-.38,0-.79.09-1.38.09-2.4,0-7-.64-7-5.7Z"/><path class="cls-2" d="M232.28,109.13c4.45,0,7,3.1,7,7.28,0,.52-.06,1-.11,1.58h-9.51a3.36,3.36,0,0,0,3.51,2.69,7.71,7.71,0,0,0,4.15-1.52l1.87,3.53a10.19,10.19,0,0,1-6.43,2.2c-5.38,0-8.27-3.89-8.27-7.9A7.49,7.49,0,0,1,232.28,109.13Zm2,6a2.09,2.09,0,0,0-2.07-2.25,2.47,2.47,0,0,0-2.43,2.25Z"/><path class="cls-2" d="M154.46,28.63,149,19.85a2.73,2.73,0,0,0-2.3-1.27H112.41a2.7,2.7,0,0,0-2.29,1.27l-5.51,8.78c-2.84,4.54-.32,10.85,5,11.57a8.92,8.92,0,0,0,1.16.07,8.39,8.39,0,0,0,6.26-2.8,8.39,8.39,0,0,0,12.51,0,8.39,8.39,0,0,0,12.51,0,8.39,8.39,0,0,0,6.26,2.8,9,9,0,0,0,1.16-.07C154.78,39.48,157.31,33.18,154.46,28.63ZM148.31,43a10.51,10.51,0,0,1-2.5-.32v8.46H113.26V42.67a11,11,0,0,1-2.5.32,11.13,11.13,0,0,1-1.53-.1,12.7,12.7,0,0,1-1.39-.3V59.27A2.71,2.71,0,0,0,110.56,62h38a2.71,2.71,0,0,0,2.72-2.71V42.59a9.42,9.42,0,0,1-1.4.3,11.27,11.27,0,0,1-1.54.1Z"/><path class="cls-2" d="M97,34.91l-3.38-5.4a1.67,1.67,0,0,0-1.41-.78h-21a1.66,1.66,0,0,0-1.41.78l-3.38,5.4A4.64,4.64,0,0,0,69.47,42a5.53,5.53,0,0,0,.71,0A5.11,5.11,0,0,0,74,40.33a5.16,5.16,0,0,0,7.69,0,5.15,5.15,0,0,0,7.68,0,5.14,5.14,0,0,0,3.84,1.72,5.43,5.43,0,0,0,.71,0A4.65,4.65,0,0,0,97,34.91Zm-3.78,8.82a6.55,6.55,0,0,1-1.53-.2v5.19h-20V43.53a7.22,7.22,0,0,1-1.54.2,7.43,7.43,0,0,1-.94-.07,8,8,0,0,1-.85-.18V53.72a1.67,1.67,0,0,0,1.67,1.67H93.38A1.66,1.66,0,0,0,95,53.72V43.48a4.94,4.94,0,0,1-.85.18,7.59,7.59,0,0,1-1,.07Z"/><path class="cls-2" d="M190.4,34.91,187,29.51a1.67,1.67,0,0,0-1.41-.78h-21a1.67,1.67,0,0,0-1.41.78l-3.38,5.4a4.65,4.65,0,0,0,3.06,7.1,5.79,5.79,0,0,0,.72,0,5.13,5.13,0,0,0,3.84-1.72,5.15,5.15,0,0,0,7.68,0,5.15,5.15,0,0,0,7.68,0,5.16,5.16,0,0,0,3.85,1.72,5.63,5.63,0,0,0,.71,0A4.64,4.64,0,0,0,190.4,34.91Zm-3.77,8.82a6.63,6.63,0,0,1-1.54-.2v5.19h-20V43.53a7.13,7.13,0,0,1-1.53.2,7.3,7.3,0,0,1-.94-.07,8.2,8.2,0,0,1-.86-.18V53.72a1.67,1.67,0,0,0,1.67,1.67h23.32a1.67,1.67,0,0,0,1.67-1.67V43.48a5.06,5.06,0,0,1-.86.18,7.43,7.43,0,0,1-.94.07Z"/></svg>