<svg id="Camada_1" data-name="Camada 1" xmlns="http://www.w3.org/2000/svg" viewBox="0 0 270.57 148.23"><defs><style>.cls-1{fill:#862677;}.cls-2{fill:#fff;}</style></defs><title>lAYOUT</title><rect class="cls-1" width="270.57" height="148.23" rx="43.2"/><path class="cls-2" d="M77.42,16.56h1.42V31.07H77.42Z"/><path class="cls-2" d="M82.47,20.69h1.38v1.63a4.33,4.33,0,0,1-.08.82h0A4.58,4.58,0,0,1,88,20.44c2.58,0,3.48,1.47,3.48,4v6.61h-1.4V24.83c0-1.63-.27-3.07-2.27-3.07A4,4,0,0,0,83.87,26v5.08h-1.4Z"/><path class="cls-2" d="M93.42,20.69h1.5l2.87,7.61a11.7,11.7,0,0,1,.35,1.26h0s.19-.74.38-1.26l2.86-7.61h1.49L99,31.07H97.42Z"/><path class="cls-2" d="M109.24,20.44c2.87,0,4.33,2.21,4.33,4.79,0,.22,0,.47,0,.7h-8a3.91,3.91,0,0,0,4,4.1,4.88,4.88,0,0,0,3.16-1.23l.64,1.07a6,6,0,0,1-3.84,1.44,5.26,5.26,0,0,1-5.45-5.42A5.08,5.08,0,0,1,109.24,20.44Zm2.91,4.37c-.08-2.16-1.41-3.21-3-3.21a3.55,3.55,0,0,0-3.57,3.21Z"/><path class="cls-2" d="M116,28.82a4.54,4.54,0,0,0,3.14,1.26c1.15,0,2.08-.58,2.08-1.68,0-2.31-5.53-1.67-5.53-5.07,0-1.9,1.63-2.89,3.53-2.89a4.63,4.63,0,0,1,3.2,1.14l-.66,1.05a3.9,3.9,0,0,0-2.6-.95c-1.09,0-2.08.47-2.08,1.61,0,2.37,5.55,1.67,5.55,5.09,0,1.72-1.47,2.93-3.51,2.93a5.4,5.4,0,0,1-3.86-1.5Z"/><path class="cls-2" d="M125.61,22h-1.36V20.77h1.38V17.82H127v2.95h2.62V22H127v5.2c0,2.41,1.54,2.74,2.35,2.74a2,2,0,0,0,.47,0v1.26a3.89,3.89,0,0,1-.6,0c-1.19,0-3.63-.39-3.63-3.86Z"/><path class="cls-2" d="M131.88,16.56h1.53v1.76h-1.53Zm.06,4.13h1.41V31.07h-1.41Z"/><path class="cls-2" d="M136.69,20.69h1.38v1.63a4.33,4.33,0,0,1-.08.82h0a4.4,4.4,0,0,1,3.81-2.7A2.86,2.86,0,0,1,145,23h0a4.42,4.42,0,0,1,3.82-2.6c2.52,0,3.45,1.47,3.45,4v6.61h-1.41V24.81c0-1.71-.35-3.07-2.23-3.07-2.08,0-3.48,2.17-3.48,4.31v5h-1.4V24.81c0-1.56-.23-3.07-2.19-3.07s-3.55,2.21-3.55,4.31v5h-1.4Z"/><path class="cls-2" d="M160,20.44c2.87,0,4.34,2.21,4.34,4.79,0,.22,0,.47,0,.7h-8a3.91,3.91,0,0,0,4,4.1,4.86,4.86,0,0,0,3.16-1.23l.64,1.07a6,6,0,0,1-3.84,1.44,5.26,5.26,0,0,1-5.44-5.42A5.08,5.08,0,0,1,160,20.44Zm2.91,4.37c-.08-2.16-1.4-3.21-2.95-3.21a3.55,3.55,0,0,0-3.57,3.21Z"/><path class="cls-2" d="M167,20.69h1.38v1.63a4.33,4.33,0,0,1-.08.82h0a4.6,4.6,0,0,1,4.19-2.7c2.58,0,3.49,1.47,3.49,4v6.61h-1.4V24.83c0-1.63-.27-3.07-2.27-3.07A4,4,0,0,0,168.39,26v5.08H167Z"/><path class="cls-2" d="M179.6,22h-1.36V20.77h1.39V17.82H181v2.95h2.62V22H181v5.2c0,2.41,1.54,2.74,2.35,2.74a2,2,0,0,0,.47,0v1.26a3.85,3.85,0,0,1-.59,0c-1.2,0-3.64-.39-3.64-3.86Z"/><path class="cls-2" d="M190.58,20.44a5.44,5.44,0,1,1-5.47,5.39A5.38,5.38,0,0,1,190.58,20.44Zm0,9.59a4.17,4.17,0,1,0-4-4.2A4.05,4.05,0,0,0,190.58,30Z"/><path class="cls-2" d="M96.72,44.26h.62V44c0-2-1.09-2.68-2.56-2.68a5.08,5.08,0,0,0-3,1l-.64-1.08A6.07,6.07,0,0,1,94.86,40c2.5,0,3.88,1.38,3.88,4v6.64H97.4V49.44a5.69,5.69,0,0,1,.06-.87h0a3.82,3.82,0,0,1-3.51,2.33c-1.75,0-3.5-1-3.5-3C90.41,44.46,94.74,44.26,96.72,44.26Zm-2.56,5.46c2,0,3.18-2.06,3.18-3.87v-.48h-.6c-1.61,0-4.91.06-4.91,2.37A2.09,2.09,0,0,0,94.16,49.72Z"/><path class="cls-2" d="M107.13,40.28h1.34v1.09a5.26,5.26,0,0,1-.06.8h0A3.87,3.87,0,0,1,112.06,40c2.81,0,4.52,2.23,4.52,5.42s-1.94,5.45-4.64,5.45a3.79,3.79,0,0,1-3.42-2.06h0a5.4,5.4,0,0,1,.07.91v5h-1.41Zm4.67,9.36c1.83,0,3.36-1.52,3.36-4.16s-1.36-4.17-3.3-4.17c-1.74,0-3.36,1.24-3.36,4.19C108.5,47.58,109.67,49.64,111.8,49.64Z"/><path class="cls-2" d="M124.69,44.26h.61V44c0-2-1.09-2.68-2.55-2.68a5,5,0,0,0-3,1l-.64-1.08A6,6,0,0,1,122.83,40c2.49,0,3.88,1.38,3.88,4v6.64h-1.34V49.44a5.69,5.69,0,0,1,.06-.87h0a3.84,3.84,0,0,1-3.51,2.33c-1.75,0-3.51-1-3.51-3C118.37,44.46,122.71,44.26,124.69,44.26Zm-2.56,5.46c2,0,3.17-2.06,3.17-3.87v-.48h-.59c-1.61,0-4.91.06-4.91,2.37A2.09,2.09,0,0,0,122.13,49.72Z"/><path class="cls-2" d="M129.94,40.28h1.39V42.2a3.87,3.87,0,0,1-.09.82h0a3.72,3.72,0,0,1,3.33-2.85,2,2,0,0,1,.55.07v1.38a2.72,2.72,0,0,0-.51,0c-2.33,0-3.3,2.62-3.3,4.68v4.39h-1.41Z"/><path class="cls-2" d="M137.68,41.54h-1.36V40.36h1.38v-3h1.38v3h2.62v1.18h-2.62v5.19c0,2.42,1.55,2.75,2.35,2.75a2.11,2.11,0,0,0,.48,0v1.25a3.72,3.72,0,0,1-.6.05c-1.2,0-3.63-.4-3.63-3.86Z"/><path class="cls-2" d="M144,36.15h1.52V37.9H144Zm.06,4.13h1.4V50.65H144Z"/><path class="cls-2" d="M148.75,40.28h1.38V42.2a4.33,4.33,0,0,1-.08.82h0a3.71,3.71,0,0,1,3.32-2.85,2,2,0,0,1,.56.07v1.38a2.72,2.72,0,0,0-.51,0c-2.34,0-3.31,2.62-3.31,4.68v4.39h-1.4Z"/><path class="cls-2" d="M164.84,40a3.79,3.79,0,0,1,3.4,2h0a5.15,5.15,0,0,1-.06-.78V36.15h1.41v14.5h-1.37V49.48a3.52,3.52,0,0,1,.07-.75h-.05a3.88,3.88,0,0,1-3.61,2.17c-2.76,0-4.51-2.23-4.51-5.45S162.1,40,164.84,40Zm.06,9.61c1.73,0,3.34-1.24,3.34-4.21,0-2.08-1.07-4.12-3.28-4.12-1.83,0-3.36,1.5-3.36,4.14S163,49.64,164.9,49.64Z"/><path class="cls-2" d="M177.4,40c2.87,0,4.33,2.21,4.33,4.79,0,.22,0,.47,0,.7h-8a3.91,3.91,0,0,0,4,4.1,4.84,4.84,0,0,0,3.16-1.24l.64,1.08a6,6,0,0,1-3.84,1.44,5.26,5.26,0,0,1-5.45-5.42A5.08,5.08,0,0,1,177.4,40Zm2.91,4.37c-.08-2.16-1.41-3.22-2.95-3.22a3.56,3.56,0,0,0-3.57,3.22Z"/><path class="cls-2" d="M39.77,113.76H51.55V89.48c0-2.19.08-4.48.08-4.48h-.16a10.88,10.88,0,0,1-2.17,3.1L46,91.28l-7.82-8.8,15-14.75H64.8v46H76.65V126H39.77Z"/><path class="cls-2" d="M108.18,66.75a28.8,28.8,0,0,1,12.24,2.53L116.78,81.5a20.53,20.53,0,0,0-7.6-1.71c-6.5,0-10.22,4.24-11.93,9.61h.16a16.22,16.22,0,0,1,7.59-2c11.54,0,18.13,9.93,18.13,20,0,9.85-6.9,19.63-18.9,19.63-11.16,0-22.47-8.88-22.47-27.86C81.76,83.29,91,66.75,108.18,66.75Zm1.62,40.66c0-4.16-2.4-8.56-8.36-8.56-3.1,0-5.73.82-5.73,3.51,0,6.92,4.64,11.56,8.52,11.56C107.64,113.92,109.8,110.83,109.8,107.41Z"/><path class="cls-2" d="M130.41,84h12.86v3.66a22.58,22.58,0,0,1-.16,2.61h.16c1.86-2.93,5.58-7.25,11.85-7.25a11.5,11.5,0,0,1,11.16,7.09h.15a15.23,15.23,0,0,1,12.78-7.09c7.29,0,12.94,4.15,12.94,15.72V126h-13.4V101.13c0-3.09-.54-5.29-3.1-5.29-5.81,0-7.67,6.11-7.67,12.38V126h-13.4V101.13c0-3.09-.54-5.29-3.1-5.29-6.12,0-7.67,6.6-7.67,12.38V126h-13.4Z"/><path class="cls-2" d="M200.83,84h13.4v42h-13.4Zm.15-16.3h13.09v11H201Z"/><path class="cls-2" d="M223.14,67.73h13.4v40.9c0,4,.69,5.38,3.72,5.38a11.33,11.33,0,0,0,1.62-.09v12.22a38.56,38.56,0,0,1-4,.25c-7.12,0-14.71-1.79-14.71-15.89Z"/></svg>