<svg id="Camada_1" data-name="Camada 1" xmlns="http://www.w3.org/2000/svg" viewBox="0 0 270.57 148.23"><defs><style>.cls-1{fill:#862677;}.cls-2{fill:#fff;}</style></defs><title>lAYOUT</title><rect class="cls-1" width="270.57" height="148.23" rx="43.2"/><path class="cls-2" d="M77.67,80.69h4.56v.76c0,.5,0,1,0,1h0a5.6,5.6,0,0,1,4.56-2.08c4.1,0,6.79,3.22,6.79,7.89s-3,7.87-7,7.87a5.81,5.81,0,0,1-3.83-1.44h-.06A12.69,12.69,0,0,1,82.73,96v5.64H77.67Zm7.87,11.23c1.58,0,2.95-1.29,2.95-3.6s-1.2-3.71-2.95-3.71c-1.52,0-3,1.11-3,3.71C82.58,90.13,83.55,91.92,85.54,91.92Z"/><path class="cls-2" d="M103.64,86.36h.44V86.1c0-1.26-1-1.67-2.14-1.67a7.89,7.89,0,0,0-4.15,1.44L96,82.3a11.51,11.51,0,0,1,6.37-2c4.15,0,6.72,2.31,6.72,6.14v9.27h-4.61v-.91a9,9,0,0,1,0-.93h0A5.55,5.55,0,0,1,100,96.1a4.61,4.61,0,0,1-4.91-4.59C95.13,87.47,99.93,86.36,103.64,86.36Zm-2.08,6a2.77,2.77,0,0,0,2.58-2.66v-.41h-.47c-1.55,0-3.54.41-3.54,1.78A1.29,1.29,0,0,0,101.56,92.33Z"/><path class="cls-2" d="M113.76,97.68a2.4,2.4,0,0,0,2.42-1.52l.3-.71-6.41-14.76h5.73L118,87.62c.27.82.56,2.34.56,2.34h.06s.29-1.43.5-2.25l1.9-7h5.52l-6.17,16.67a6.48,6.48,0,0,1-6.28,4.53,6.75,6.75,0,0,1-3.51-1.06l1.61-3.71A3.35,3.35,0,0,0,113.76,97.68Z"/><path class="cls-2" d="M128.47,74.84h5.05v5.82a12.69,12.69,0,0,1-.06,1.29h.06a5.69,5.69,0,0,1,4.07-1.61c4.09,0,6.78,3.22,6.78,7.89s-3,7.87-7,7.87a5.52,5.52,0,0,1-4.21-1.79h-.06s0,.38,0,.85v.59h-4.64Zm7.86,17.08c1.58,0,2.95-1.29,2.95-3.6s-1.2-3.71-2.95-3.71c-1.52,0-3,1.11-3,3.71C133.38,90.13,134.34,91.92,136.33,91.92Z"/><path class="cls-2" d="M154.43,86.36h.44V86.1c0-1.26-1-1.67-2.14-1.67a7.89,7.89,0,0,0-4.15,1.44l-1.75-3.57a11.54,11.54,0,0,1,6.37-2c4.15,0,6.73,2.31,6.73,6.14v9.27h-4.62v-.91a7.55,7.55,0,0,1,.06-.93h-.06a5.55,5.55,0,0,1-4.48,2.19,4.61,4.61,0,0,1-4.91-4.59C145.92,87.47,150.72,86.36,154.43,86.36Zm-2.08,6a2.76,2.76,0,0,0,2.58-2.66v-.41h-.47c-1.55,0-3.54.41-3.54,1.78A1.29,1.29,0,0,0,152.35,92.33Z"/><path class="cls-2" d="M170.69,80.34a8.28,8.28,0,0,1,6,2.28L174.55,86A5.32,5.32,0,0,0,171,84.55a3.46,3.46,0,0,0-3.6,3.6,3.64,3.64,0,0,0,3.77,3.74,6.94,6.94,0,0,0,4.13-1.81l1.84,3.53a9.27,9.27,0,0,1-6.46,2.49c-5.38,0-8.39-3.74-8.39-7.9S165.28,80.34,170.69,80.34Z"/><path class="cls-2" d="M179.29,74.84h5.05V85.66h1.44l3-5h5.49l-4.41,6.84v.06l5,8.16h-5.76l-3.19-5.85h-1.58v5.85h-5.05Z"/><path class="cls-2" d="M58.2,102.27a11.4,11.4,0,0,1,4.62.9l-1.38,4.39a7.89,7.89,0,0,0-2.86-.62,4.57,4.57,0,0,0-4.51,3.45h.06a6.35,6.35,0,0,1,2.87-.73c4.35,0,6.84,3.57,6.84,7.17a6.93,6.93,0,0,1-7.13,7c-4.21,0-8.48-3.19-8.48-10C48.23,108.2,51.71,102.27,58.2,102.27Zm.61,14.58a2.93,2.93,0,0,0-3.16-3.06c-1.17,0-2.16.29-2.16,1.25,0,2.49,1.75,4.15,3.22,4.15A2.19,2.19,0,0,0,58.81,116.85Z"/><path class="cls-2" d="M81.36,114.14h.43v-.27c0-1.25-1-1.66-2.13-1.66a7.88,7.88,0,0,0-4.15,1.43l-1.76-3.57a11.66,11.66,0,0,1,6.38-2c4.15,0,6.72,2.31,6.72,6.14v9.27H82.23v-.91a7.76,7.76,0,0,1,.06-.93h-.06a5.53,5.53,0,0,1-4.47,2.19,4.61,4.61,0,0,1-4.91-4.59C72.85,115.25,77.64,114.14,81.36,114.14Zm-2.08,6a2.75,2.75,0,0,0,2.57-2.66V117h-.46c-1.55,0-3.54.41-3.54,1.78A1.28,1.28,0,0,0,79.28,120.1Z"/><path class="cls-2" d="M97.29,119.13h4.45v-8.71c0-.79,0-1.61,0-1.61h-.06a3.89,3.89,0,0,1-.82,1.12l-1.26,1.14-2.95-3.16,5.64-5.29h4.42v16.51h4.47v4.39H97.29Z"/><path class="cls-2" d="M113.2,121.27c0-7.72,9-9.09,9-12.1a2.06,2.06,0,0,0-2.25-2.08,3.79,3.79,0,0,0-3.1,2.22l-3.8-2.54a8,8,0,0,1,7.37-4.5c3.42,0,7.13,2,7.13,6.4,0,6.52-8.44,7.78-8.71,10.46h9v4.39H113.43A13.42,13.42,0,0,1,113.2,121.27Z"/><path class="cls-2" d="M138.35,108.46h4.85v1.32a7.55,7.55,0,0,1-.06.93h.06a5.37,5.37,0,0,1,4.47-2.6,4.36,4.36,0,0,1,4.21,2.55h.06a5.83,5.83,0,0,1,4.83-2.55c2.74,0,4.88,1.49,4.88,5.65v9.76h-5.06V114.6c0-1.11-.2-1.9-1.17-1.9-2.19,0-2.89,2.2-2.89,4.45v6.37h-5.06V114.6c0-1.11-.2-1.9-1.17-1.9-2.31,0-2.89,2.37-2.89,4.45v6.37h-5.06Z"/><path class="cls-2" d="M171.92,108.11c4.44,0,7,3.1,7,7.28a13.82,13.82,0,0,1-.11,1.58h-9.5a3.36,3.36,0,0,0,3.5,2.69,7.77,7.77,0,0,0,4.16-1.52l1.87,3.54a10.29,10.29,0,0,1-6.44,2.19c-5.38,0-8.27-3.89-8.27-7.89A7.5,7.5,0,0,1,171.92,108.11Zm2,6a2.08,2.08,0,0,0-2.07-2.25,2.48,2.48,0,0,0-2.43,2.25Z"/><path class="cls-2" d="M182.53,118.35a6.64,6.64,0,0,0,4.09,1.52c1,0,1.38-.33,1.38-.79,0-1.61-7.05-1.26-7.05-6.2,0-3.1,2.78-4.77,6.26-4.77a8.45,8.45,0,0,1,5.38,1.73l-1.73,3.51a6.75,6.75,0,0,0-3.8-1.23c-1.08,0-1.4.32-1.4.73,0,1.58,7.05,1.2,7.05,6.08,0,2.81-2.34,4.94-6.2,4.94a9.32,9.32,0,0,1-6.14-2.22Z"/><path class="cls-2" d="M202.27,108.11c4.44,0,7,3.1,7,7.28a13.83,13.83,0,0,1-.12,1.58h-9.5a3.36,3.36,0,0,0,3.51,2.69,7.74,7.74,0,0,0,4.15-1.52l1.87,3.54a10.26,10.26,0,0,1-6.43,2.19c-5.38,0-8.28-3.89-8.28-7.89A7.5,7.5,0,0,1,202.27,108.11Zm2,6a2.09,2.09,0,0,0-2.08-2.25,2.48,2.48,0,0,0-2.43,2.25Z"/><path class="cls-2" d="M212.88,118.35a6.64,6.64,0,0,0,4.1,1.52c1,0,1.37-.33,1.37-.79,0-1.61-7-1.26-7-6.2,0-3.1,2.78-4.77,6.26-4.77a8.45,8.45,0,0,1,5.38,1.73l-1.72,3.51a6.81,6.81,0,0,0-3.81-1.23c-1.08,0-1.4.32-1.4.73,0,1.58,7.05,1.2,7.05,6.08,0,2.81-2.34,4.94-6.2,4.94a9.36,9.36,0,0,1-6.14-2.22Z"/><path class="cls-2" d="M106.61,29.79V27.68a3.16,3.16,0,0,1,3.16-3.17h47.51V18.17a3.17,3.17,0,0,1,5.41-2.23l10.56,10.55a3.16,3.16,0,0,1,0,4.48L162.69,41.53a3.17,3.17,0,0,1-5.41-2.24V33H109.77A3.16,3.16,0,0,1,106.61,29.79ZM171,49.85H123.5V43.51a3.17,3.17,0,0,0-5.41-2.24L107.53,51.83a3.18,3.18,0,0,0,0,4.48l10.56,10.56a3.17,3.17,0,0,0,5.41-2.24V58.3H171a3.17,3.17,0,0,0,3.17-3.17V53A3.17,3.17,0,0,0,171,49.85Z"/></svg>