<svg id="Camada_1" data-name="Camada 1" xmlns="http://www.w3.org/2000/svg" viewBox="0 0 200 200"><defs><style>.cls-1{fill:#fff;}</style></defs><title>Site Hoken - index</title><path class="cls-1" d="M95.26,43.21c5.1,0,9.82-.22,14.51.09a19.57,19.57,0,0,1,8.08,2,15.33,15.33,0,0,1,8.44,14.34c-.06,9.07.11,18.14.12,27.21q0,23.64,0,47.27c0,3-.5,3.55-3.53,3.54-7.92,0-15.84-.14-23.77-.14-10,0-20,.12-30,.13-7.38,0-14.76-.12-22.14-.13-6.22,0-12.44.1-18.66.13-2.65,0-3.27-.61-3.27-3.2q0-31,0-62c0-4.56-.2-9.13,0-13.68a15.83,15.83,0,0,1,4-9.88c3.75-4.36,8.38-5.72,13.78-5.67,3.8,0,7.6-.05,11.4,0m22.37,4.58v-.08c-11.66,0-23.32.15-35-.06-5.76-.11-13,4.85-12.44,12.51.16,2.2.33,4.41.33,6.62q0,31.78,0,63.55a4,4,0,0,0,.05,1.55c.21.47.73,1.12,1.14,1.13,5.49.19,11,.34,16.47.36,3.89,0,7.79-.28,11.68-.27,5.79,0,11.59.25,17.38.29,2.61,0,5.22-.3,7.83-.28,4.48,0,9,.26,13.45.27,3.5,0,7-.24,10.5-.29,4-.05,8-.07,12,0,1.49,0,1.87-.5,1.87-1.93q-.06-35.85,0-71.71c0-2.79-.27-5.46-2.38-7.61s-4.36-4-7.5-4C100.23,47.78,88.44,47.82,76.65,47.82ZM60.84,43h29.8"/><path class="cls-1" d="M75.54,84.73H105.6c3,0,3.5.53,3.5,3.56q0,18.33,0,36.66a11.55,11.55,0,0,1,0,1.18c-.13,1.3-.94,2.22-2.17,2a4.24,4.24,0,0,1-2.17-1.8c-.32-.44-.14-1.26-.14-1.91,0-11-.06-22,0-32.94,0-1.87-.58-2.27-2.33-2.26q-26.62.08-53.25,0c-1.93,0-2.4.58-2.39,2.43q.12,16.47,0,32.94a4.76,4.76,0,0,1-1.12,2.93c-1.14,1.28-2.83.65-3.18-1.06a8.49,8.49,0,0,1-.09-1.75V88.61c0-3.45.42-3.87,3.8-3.87Z"/><path class="cls-1" d="M62.54,124.14c-.53-4.36-1-8.37-1.51-12.38-.43-3.5-.91-7-1.3-10.5-.27-2.41.49-3.24,2.94-3.25q12.87,0,25.75,0c3,0,3.68.79,3.28,3.83q-1.29,9.82-2.55,19.64c-.1.77-.11,1.54-.19,2.66,2.36,0,4.56,0,6.75,0a5,5,0,0,1,2.31.18,3.34,3.34,0,0,1,1.59,2.08c.06.56-.85,1.59-1.52,1.79a13.55,13.55,0,0,1-3.88.4q-16.6,0-33.2,0c-2.16,0-4.32-.07-6.48-.16-1.49-.06-2.85-.56-2.83-2.29s1.39-2,2.82-2Zm4.54,0c5.59,0,10.88,0,16.17-.07.42,0,1.1-.94,1.18-1.52.61-4.07,1.1-8.15,1.61-12.23.32-2.51.61-5,.93-7.7H64.46C65.34,109.81,66.2,116.84,67.08,124.11Z"/><path class="cls-1" d="M81.54,66.25a4.56,4.56,0,1,1,9.11,0,4.56,4.56,0,1,1-9.11,0Z"/><path class="cls-1" d="M52.58,66.26a4.55,4.55,0,0,1-9.1,0,4.55,4.55,0,1,1,9.1,0Z"/><path class="cls-1" d="M101.63,64c1.63,0,3.26,0,4.89,0s2.59.67,2.54,2.31a2.19,2.19,0,0,1-2.49,2.18c-3.32,0-6.65,0-10,0-1.54,0-2.58-.79-2.56-2.33S95.1,64,96.55,64c1.69,0,3.39,0,5.08,0Z"/><path class="cls-1" d="M63.38,68.5H58.66c-1.5,0-2.63-.58-2.69-2.2S57.06,64,58.55,64q5,0,10,0C70,64,71,64.78,71,66.28s-1,2.19-2.47,2.21C66.79,68.52,65.08,68.5,63.38,68.5Z"/><path class="cls-1" d="M91.72,116.21v-1.46a4,4,0,0,1,4.53-3c.79.06,1.58,0,2.37,0l.12-.26A7.27,7.27,0,0,1,98,111c-1.51-1.44-3-2.88-4.5-4.35a2.61,2.61,0,0,1-.69-2.9A2.57,2.57,0,0,1,95.06,102a3,3,0,0,1,2.53,1q4.34,4.19,8.68,8.33a1.47,1.47,0,0,0,.88.45c3.72,0,7.43,0,11.14,0,.2,0,.53-.12.58-.27.36-1,.67-1.93,1-3l-1-.06c-3.47-.06-6.94-.11-10.41-.19a2.72,2.72,0,0,1-2.74-1.77,2.69,2.69,0,0,1,2.62-3.63c2.14,0,4.28,0,6.43.08h1c-1.23-1.23-2.26-2.31-3.36-3.31a2,2,0,0,0-1.18-.49c-4.07-.09-8.13-.13-12.2-.2a2.73,2.73,0,0,1-2.89-2.76,2.66,2.66,0,0,1,2.93-2.58c2.15,0,4.29,0,6.43,0a5.17,5.17,0,0,0,.68,0l.19-.27c-.78-.7-1.6-1.36-2.34-2.1a3.52,3.52,0,0,1-.85-4.1,3.59,3.59,0,0,1,5.64-1.31c.9.75,1.7,1.62,2.68,2.56,0-.47,0-.76,0-1,0-2.08-.12-4.16-.12-6.24A2.74,2.74,0,0,1,115,78.42a2.85,2.85,0,0,1,1.85,3c.08,3.76.18,7.52.19,11.28a2.8,2.8,0,0,0,1,2.32c1,.84,1.83,1.79,2.88,2.83V96.32c0-2-.1-4.06-.09-6.09a2.7,2.7,0,0,1,5.3-.6,5.47,5.47,0,0,1,.13,1.21l.21,10.06c0,.28,0,.56.06.88.9-.33,1.69-.68,2.52-.9.6-.15.72-.46.72-1,0-3.44,0-6.88,0-10.31a2,2,0,0,0-.5-1.26c-2.76-2.91-5.57-5.77-8.35-8.65-1.3-1.34-1.35-3-.17-4.1s2.82-1,4.11.33c1.08,1.1,2.14,2.22,3.22,3.32.52.53,1.07,1,1.73,1.69,0-1.32,0-2.47,0-3.62a3.59,3.59,0,0,1,4.45-3.3,3.64,3.64,0,0,1,2.8,3.78c0,1,0,2,0,3l.21.1c.17-.2.33-.42.51-.6,1.47-1.52,2.91-3.07,4.42-4.55a2.7,2.7,0,0,1,4.59,1.15,2.78,2.78,0,0,1-.85,2.8q-4.22,4.35-8.4,8.72a1.43,1.43,0,0,0-.46.88q0,5.48,0,11c0,.2.12.53.27.59.94.37,1.9.69,2.93,1.05,0-.42,0-.76,0-1.11.07-3.41.13-6.81.2-10.22a2.72,2.72,0,1,1,5.43.06c0,2.11-.06,4.22-.08,6.33,0,.25,0,.5,0,.92,1.18-1.19,2.25-2.22,3.26-3.3a1.85,1.85,0,0,0,.47-1.11c.12-4,.19-8,.28-11.93a4.8,4.8,0,0,1,.13-1.2,2.68,2.68,0,0,1,2.85-1.93,2.62,2.62,0,0,1,2.44,2.59c0,2.16-.05,4.32-.08,6.49v.84l.26.16c.75-.81,1.44-1.68,2.25-2.42a3.62,3.62,0,0,1,5.15,5.09c-.76.85-1.59,1.65-2.51,2.61h1.08c2.17,0,4.34,0,6.51,0a2.62,2.62,0,0,1,.82,5.1,5.52,5.52,0,0,1-1.52.2l-11.79.2c-.29,0-.67,0-.84.17-1.2,1.15-2.36,2.34-3.67,3.65h1c2.17,0,4.34-.07,6.51-.08A2.57,2.57,0,0,1,161,104.6a2.67,2.67,0,0,1-2.51,3.7c-3.57.11-7.15.14-10.73.21-.29,0-.58,0-.91,0,.31.92.63,1.75.87,2.6a.77.77,0,0,0,.9.65c3.55,0,7.11,0,10.66,0a1.71,1.71,0,0,0,1.35-.55c2.78-2.7,5.58-5.38,8.37-8.06,1.57-1.51,3.15-1.66,4.35-.43s1,2.86-.53,4.33l-4.16,4c-.18.18-.35.38-.68.72,1.36,0,2.51,0,3.66,0a3.57,3.57,0,0,1,3.24,4.48,3.66,3.66,0,0,1-3.83,2.75c-1,0-1.91,0-2.87,0l-.09.22a7.6,7.6,0,0,1,.61.52c1.52,1.46,3.06,2.9,4.55,4.41a2.69,2.69,0,0,1-1.14,4.58,2.86,2.86,0,0,1-2.88-.89q-4.3-4.2-8.66-8.35a1.51,1.51,0,0,0-.87-.47c-3.82,0-7.65,0-11.47,0a.75.75,0,0,0-.56.3c-.4.93-.75,1.89-1.15,2.91l1,.06,10.57.19a5.19,5.19,0,0,1,1.05.09,2.72,2.72,0,0,1,2,2.86,2.61,2.61,0,0,1-2.49,2.44c-2.2,0-4.39,0-6.59,0H151c1.21,1.19,2.26,2.2,3.27,3.24a1.72,1.72,0,0,0,1.35.56c4.12.07,8.24.15,12.36.27a2.66,2.66,0,0,1,2.61,2.76,2.69,2.69,0,0,1-2.74,2.63c-1.08,0-2.17,0-3.25,0h-4c.21.23.37.43.56.61.57.58,1.16,1.14,1.72,1.73a3.51,3.51,0,0,1,1,3,3.41,3.41,0,0,1-2.26,2.93,3.37,3.37,0,0,1-3.7-.69c-.87-.79-1.67-1.66-2.64-2.64,0,.47,0,.73,0,1,0,2,0,4.05.07,6.08a2.17,2.17,0,0,1-1.05,2.06,2.78,2.78,0,0,1-4.39-2.33c-.08-3.87-.14-7.74-.22-11.6,0-.27,0-.62-.14-.78-1.21-1.18-2.45-2.32-3.68-3.48v.72c0,2,0,4,.08,6.08a2.42,2.42,0,0,1-1.48,2.48,2.76,2.76,0,0,1-4-2.51c0-3.55-.1-7.09-.16-10.63,0-.29,0-.57-.05-.92-.88.33-1.67.68-2.49.91-.59.16-.75.43-.75,1q0,5.47,0,11a1.83,1.83,0,0,0,.6,1.41c2.76,2.83,5.49,5.69,8.24,8.53a2.84,2.84,0,0,1,.91,2.86,2.72,2.72,0,0,1-4.66,1.1c-1.52-1.51-3-3.07-4.47-4.61-.15-.15-.32-.29-.6-.54v3a3.7,3.7,0,0,1-1.47,3.19,11.19,11.19,0,0,1-1.41.76h-1.46a4,4,0,0,1-2.95-4.52c0-.77,0-1.55,0-2.49-.33.3-.52.47-.7.66-1.49,1.53-3,3.07-4.48,4.6a2.65,2.65,0,0,1-2.84.71,2.62,2.62,0,0,1-1.84-2.18,2.87,2.87,0,0,1,1-2.54c2.8-2.88,5.59-5.75,8.37-8.64a1.46,1.46,0,0,0,.49-.87c0-4,0-8.06,0-12.1l-3.29-1.22c0,.4,0,.74,0,1.09q-.09,5.23-.17,10.47a2.44,2.44,0,0,1-.91,2.15,3,3,0,0,1-3.15.28,2.42,2.42,0,0,1-1.38-2.46c0-2.05.06-4.11.09-6.16,0-.23,0-.46,0-.68l-.3-.21c-1,1.07-2,2.16-3,3.2a1.74,1.74,0,0,0-.54,1.27q-.06,6-.2,11.93c0,1.69-1.1,2.56-2.92,2.5a2.39,2.39,0,0,1-2.54-2.63c0-2,.08-3.94.11-5.92,0-.22,0-.45,0-.89-.55.58-1,1-1.36,1.43s-.83.86-1.29,1.24a3.58,3.58,0,0,1-4.1.39,3.38,3.38,0,0,1-1.76-3.69,6.47,6.47,0,0,1,1.25-2.28,22.56,22.56,0,0,1,2.13-2.16c-.55,0-.84,0-1.13,0-2.12,0-4.23.08-6.35.09a2.57,2.57,0,0,1-2.59-2,2.67,2.67,0,0,1,2.64-3.36c4.12-.12,8.24-.19,12.36-.29a1.26,1.26,0,0,0,.77-.14c1.19-1.15,2.35-2.34,3.62-3.61-.36,0-.57,0-.78,0-2,0-4,.07-6,.08a4.94,4.94,0,0,1-1.44-.16,2.69,2.69,0,0,1-1.82-2.92,2.74,2.74,0,0,1,2.72-2.33c3.6-.08,7.21-.13,10.81-.2l1.1,0c-.36-.91-.73-1.72-1-2.55a.85.85,0,0,0-1-.69c-3.64,0-7.27,0-10.9,0a1.94,1.94,0,0,0-1.19.51c-2.9,2.76-5.78,5.55-8.67,8.33a2.77,2.77,0,0,1-4,.16,2.74,2.74,0,0,1,.23-4c1.49-1.46,3-2.9,4.5-4.35.16-.16.31-.34.58-.65H95.69a3.69,3.69,0,0,1-3.2-1.45A13.5,13.5,0,0,1,91.72,116.21Zm41.65,8.31a9.44,9.44,0,1,0-9.45-9.43A9.41,9.41,0,0,0,133.37,124.52Z"/></svg>