<svg id="Camada_1" data-name="Camada 1" xmlns="http://www.w3.org/2000/svg" viewBox="0 0 250 250"><defs><style>.cls-1{fill:#3cabd3;}</style></defs><path class="cls-1" d="M26.15,134.05a13.64,13.64,0,0,1,2.37-7.79c3.55-5.46,7.06-11,10.65-16.4a12.75,12.75,0,0,0,2.23-6.66c.27-6.45.69-12.89,1-19.34S45.78,73,51.82,70.64,64.26,66,70.38,63.42a14.08,14.08,0,0,0,5.05-3.69c4.34-5,8.42-10.27,12.61-15.43C92,39.47,97,37.85,103,39.37q9.38,2.4,18.69,5a13.84,13.84,0,0,0,7.76,0c6.15-1.73,12.33-3.37,18.51-5s11.13.05,15.1,4.93c4.15,5.11,8.18,10.32,12.48,15.3a14.56,14.56,0,0,0,5.2,3.78c5.94,2.51,12,4.71,18,7,6.5,2.5,9.6,6.91,9.91,13.84.3,6.57.6,13.15,1.12,19.71a11.79,11.79,0,0,0,1.7,5.07c3.62,5.87,7.48,11.58,11.16,17.41a13.28,13.28,0,0,1,0,15.08c-3.59,5.73-7.42,11.32-10.95,17.09a13.67,13.67,0,0,0-2,5.75c-.55,6.43-.83,12.89-1.09,19.34-.28,6.81-3.44,11.46-9.87,13.87-6,2.25-12,4.44-17.89,6.93a15,15,0,0,0-5.36,3.87c-4.16,4.78-8,9.78-12,14.72-4.52,5.64-9.55,7.24-16.49,5.32-6.22-1.72-12.43-3.48-18.71-5a13.16,13.16,0,0,0-5.89.07c-6.46,1.55-12.85,3.37-19.26,5.08-6.16,1.65-11.24,0-15.25-5-4.14-5.11-8.18-10.31-12.47-15.3a14.1,14.1,0,0,0-5-3.7c-6.18-2.59-12.49-4.86-18.74-7.3-5.88-2.29-8.89-6.67-9.25-12.92-.38-6.63-.61-13.28-1.15-19.9a13.74,13.74,0,0,0-1.88-5.77c-3.55-5.84-7.36-11.51-11.07-17.25A13.19,13.19,0,0,1,26.15,134.05Zm195-.08a39.76,39.76,0,0,0-2.4-5.61c-3.57-5.75-7.46-11.3-10.92-17.11a17.87,17.87,0,0,1-2.34-7.2c-.62-6.74-.84-13.52-1.17-20.28a9.5,9.5,0,0,0-6.61-9.11c-5.91-2.26-11.79-4.61-17.73-6.78a18.24,18.24,0,0,1-8.37-6.1c-3.94-5-8-10-12.05-14.93a9.37,9.37,0,0,0-10.43-3.29c-6.35,1.71-12.72,3.38-19.05,5.13a16.12,16.12,0,0,1-8.9,0C115.1,47,109,45.56,103,43.79c-5.17-1.52-9.12-.15-12.38,4.11-3.81,5-7.87,9.75-11.79,14.65a15.78,15.78,0,0,1-6.91,5c-6.22,2.33-12.4,4.75-18.6,7.13a9.35,9.35,0,0,0-6.51,8.79c-.37,6.57-.74,13.14-1.06,19.72a16.36,16.36,0,0,1-2.64,8.49c-3.63,5.49-7.14,11.06-10.75,16.55-2.61,4-2.53,7.81.09,11.75,3.6,5.43,7.07,11,10.66,16.39a16.43,16.43,0,0,1,2.65,8.49c.3,6.51.71,13,1,19.53.22,4.52,2.49,7.47,6.68,9.06,6.09,2.31,12.16,4.69,18.26,7a16.33,16.33,0,0,1,7.21,5.22c4.13,5.2,8.34,10.34,12.53,15.5,2.79,3.43,6.34,4.47,10.58,3.32,6.35-1.71,12.72-3.36,19.06-5.12a16.18,16.18,0,0,1,8.89,0c6.16,1.71,12.35,3.27,18.5,5,4.79,1.35,8.55.07,11.61-3.84,4-5.08,8.14-10,12.17-15.07a15.6,15.6,0,0,1,6.93-5q9.49-3.6,18.94-7.3a8.93,8.93,0,0,0,6-8.12c.46-6.88.78-13.77,1.13-20.65a15.17,15.17,0,0,1,2.45-7.78c3.68-5.61,7.38-11.21,10.91-16.91A39.38,39.38,0,0,0,221.1,134Z"/><path class="cls-1" d="M44.16,133.88a81.29,81.29,0,0,1,81.47-81.21c45.44.19,81.44,36.6,81.25,82.18-.19,44.72-36.94,80.76-82.11,80.54C80.21,215.17,44,178.56,44.16,133.88Zm81.26,79.94a79.78,79.78,0,1,0-79.66-79.75A79.77,79.77,0,0,0,125.42,213.82Z"/><path class="cls-1" d="M200,134.16a74.46,74.46,0,1,1-74.48-74.58A74.54,74.54,0,0,1,200,134.16Zm-74.54,72.4c39.81.15,72.42-32.3,72.61-72.26a72.54,72.54,0,1,0-72.61,72.26Z"/><path class="cls-1" d="M57,134a68.54,68.54,0,1,1,68.28,68.56A68.34,68.34,0,0,1,57,134ZM187.71,154.1H63.37c5.84,20.55,27.56,44.83,61,45.4C157.66,200.07,181,176.72,187.71,154.1Zm-.22-40.48C182,93.16,158.78,67.87,124.1,68.57c-33.46.68-55.46,25.68-60.52,45.05ZM86.81,146.15a13.53,13.53,0,0,0,.7-2.89c0-6.39.15-12.78-.05-19.16a5.71,5.71,0,0,0-4.58-5.53c-5.63-1.52-9.63,1.48-9.67,7.29,0,5.2,0,10.4,0,15.59,0,5.6,3,8.32,8.6,7.63a3.77,3.77,0,0,1,3.14.81c.84.65,2.14.68,3.46,1.05v-4.26Zm36.49,2.69-.76-4.87c-1.28-8-2.54-16.07-3.87-24.09-.08-.47-.63-1.2-1-1.22-2-.12-4.08-.06-6.18-.06-1.63,10.17-3.21,20.08-4.83,30.26a24.68,24.68,0,0,1,2.6,0c1.46.18,2-.42,2.08-1.85a26,26,0,0,1,.55-3.48h5.77c.24,1.46.39,2.83.7,4.16.1.43.56,1.06.91,1.09C120.56,148.92,121.86,148.84,123.3,148.84ZM90.57,118.69c0,8.3-.08,16.44.06,24.58a5.73,5.73,0,0,0,3.72,5.43c5.16,2.15,9.8-.62,10.3-6.15,0-.43.06-.87.06-1.31V120.36c0-.55-.08-1.09-.12-1.65h-4.4v18.51c0,1.75,0,3.51-.07,5.26a2.21,2.21,0,0,1-2.35,2.39,2.15,2.15,0,0,1-2.43-2.26c-.07-.81-.09-1.63-.1-2.44V118.69Zm71.82.14c.15.62.27,1.22.44,1.81,1.53,5.16,3.13,10.29,4.55,15.47a28.11,28.11,0,0,1,.84,5.71c.14,2.29,0,4.59,0,6.91h4.68a9.68,9.68,0,0,0,.07-1.23c-.59-6.17.69-12.05,2.73-17.83.5-1.41.89-2.86,1.31-4.3.64-2.19,1.27-4.39,2-6.78a13.56,13.56,0,0,1-1.94,0c-1.93-.31-2.87.36-3.28,2.41-.74,3.66-1.82,7.25-2.76,10.87-1.12-3.06-1.92-6.12-2.72-9.19-1.12-4.28-1.12-4.28-5.49-4C162.75,118.64,162.7,118.69,162.39,118.83ZM152,148.73h4.85V122.89h4.81v-4.16H147.12V123H152Zm-26.32-30.07v30h12.3v-4.17h-7.64V118.66Zm19.22,30.1v-30h-4.52v30Z"/><path class="cls-1" d="M77.93,133.68c0-2.44,0-4.89,0-7.33,0-.69-.11-1.54.24-2a4.38,4.38,0,0,1,2.17-1.63,1.79,1.79,0,0,1,2.31,1.62,35.35,35.35,0,0,1,.22,4.49q0,6.5,0,13c0,2.11-.86,3.1-2.47,3.08S78.06,144,78,142c-.07-2.76,0-5.52,0-8.28Z"/><path class="cls-1" d="M114.93,124.92c.68,4.7,1.37,9.4,2.07,14.24h-4.49l2.08-14.27Z"/></svg>