<svg id="Camada_1" data-name="Camada 1" xmlns="http://www.w3.org/2000/svg" viewBox="0 0 200 200"><defs><style>.cls-1{fill:#fff;}</style></defs><title>Site Hoken - index</title><path class="cls-1" d="M99.78,47.9c5,0,9.61-.22,14.21.08a19.38,19.38,0,0,1,7.9,1.91,15.05,15.05,0,0,1,8.27,14c-.06,8.88.1,17.76.11,26.64q0,23.15,0,46.27c0,3-.49,3.48-3.45,3.46-7.76,0-15.51-.13-23.27-.13-9.79,0-19.57.12-29.36.13-7.22,0-14.45-.12-21.68-.13-6.09,0-12.17.1-18.26.13-2.6,0-3.2-.6-3.2-3.13q0-30.33,0-60.66c0-4.47-.2-9,0-13.4A15.55,15.55,0,0,1,35,53.44c3.67-4.26,8.21-5.6,13.5-5.55,3.71,0,7.44,0,11.15,0m21.9,4.48v-.08c-11.41,0-22.83.15-34.24-.06-5.64-.1-12.71,4.76-12.18,12.25.15,2.16.32,4.32.32,6.49q0,31.09,0,62.2a4,4,0,0,0,0,1.52c.21.46.72,1.1,1.12,1.11,5.37.18,10.74.33,16.12.35,3.81,0,7.62-.28,11.43-.27,5.68,0,11.35.24,17,.28,2.55,0,5.11-.28,7.66-.27,4.39,0,8.78.25,13.16.26,3.43,0,6.86-.23,10.29-.28,3.91,0,7.82-.06,11.73,0,1.46,0,1.84-.49,1.83-1.89q0-35.1,0-70.19c0-2.73-.27-5.35-2.33-7.45s-4.27-3.95-7.34-4C104.65,52.37,93.1,52.41,81.56,52.41ZM66.08,47.73H95.26"/><path class="cls-1" d="M80.47,88.55H109.9c2.92,0,3.43.52,3.43,3.48v35.9a11,11,0,0,1,0,1.15c-.13,1.28-.93,2.17-2.12,1.94a4.13,4.13,0,0,1-2.13-1.76c-.31-.44-.14-1.24-.14-1.88,0-10.75,0-21.49,0-32.24,0-1.83-.57-2.22-2.28-2.22q-26.07.09-52.13,0c-1.89,0-2.35.57-2.33,2.38q.12,16.13,0,32.25a4.75,4.75,0,0,1-1.1,2.86c-1.12,1.26-2.77.64-3.12-1a9,9,0,0,1-.08-1.72q0-17.67,0-35.32c0-3.38.41-3.79,3.72-3.79Z"/><path class="cls-1" d="M67.75,127.12,66.27,115c-.42-3.43-.89-6.86-1.28-10.29-.26-2.35.49-3.17,2.89-3.17q12.6,0,25.2,0c3,0,3.6.77,3.21,3.76q-1.26,9.6-2.5,19.22c-.09.75-.11,1.51-.18,2.6,2.31,0,4.46,0,6.61,0a4.76,4.76,0,0,1,2.26.17,3.3,3.3,0,0,1,1.56,2c0,.56-.84,1.56-1.49,1.76a13,13,0,0,1-3.8.38q-16.25,0-32.5,0c-2.11,0-4.23-.08-6.34-.16-1.46-.06-2.8-.54-2.77-2.24s1.36-2,2.76-2Zm4.44,0c5.47,0,10.66,0,15.83-.06.41,0,1.08-.93,1.16-1.49.59-4,1.07-8,1.57-12,.31-2.45.6-4.91.91-7.53h-22C70.49,113.09,71.33,120,72.19,127.09Z"/><path class="cls-1" d="M86.34,70.46A4.46,4.46,0,1,1,90.82,75,4.55,4.55,0,0,1,86.34,70.46Z"/><path class="cls-1" d="M58,70.46a4.46,4.46,0,1,1-8.91.05A4.46,4.46,0,1,1,58,70.46Z"/><path class="cls-1" d="M106,68.25c1.6,0,3.2,0,4.79,0s2.54.66,2.49,2.26-1,2.12-2.44,2.13c-3.26,0-6.51,0-9.77,0-1.5,0-2.52-.77-2.5-2.28s1-2.1,2.46-2.11c1.65,0,3.31,0,5,0Z"/><path class="cls-1" d="M68.57,72.66H64c-1.47,0-2.58-.58-2.63-2.15s1.06-2.24,2.52-2.25q4.91,0,9.81,0c1.43,0,2.37.75,2.34,2.22s-1,2.15-2.42,2.17C71.9,72.67,70.24,72.66,68.57,72.66Z"/><path class="cls-1" d="M136.51,71c13.52,6.51,20.12,18.28,24.19,32,3.39-3,4-7.95,2.32-15.24,1.6,1.71,3.29,3.34,4.79,5.14,5.68,6.79,10.05,14.29,12.12,23,3,12.64-.43,23.43-9.5,32.53a65.7,65.7,0,0,1-6.68,5.66,55,55,0,0,1-6.44,4.07,42.6,42.6,0,0,0-13.47-50.86c.46,8.75-1.38,16.54-6.78,23.7a57.12,57.12,0,0,0-.48-6.41,46,46,0,0,0-1.8-5.63l-.54.08a24.59,24.59,0,0,1-1.08,3.41c-1.78,3.72-3.3,7.64-5.59,11-5.12,7.59-5.75,15.34-2,23.56a1.71,1.71,0,0,1,.07,1.27c-2.69-1.79-5.47-3.46-8.06-5.38-5.62-4.18-10.38-9.07-12-16.19-1.53-6.51-.29-12.74,2.28-18.77,1.06-2.5,2.3-4.92,3.5-7.36,2.1-4.29,4.1-8.6,4.65-13.75,2.65,4.45,3.22,9.09,4,14,2.6-3.67,5.33-7.26,7.77-11,4.3-6.63,7.71-13.68,8.57-21.66a55.2,55.2,0,0,0-.14-7.15Z"/></svg>