<svg id="Camada_1" data-name="Camada 1" xmlns="http://www.w3.org/2000/svg" viewBox="0 0 200 200"><defs><style>.cls-1{fill:#fff;}.cls-2{fill:#0071bc;}</style></defs><title>Site Hoken - index</title><path class="cls-1" d="M101.18,43.1c5.22,0,10-.23,14.86.08a20.1,20.1,0,0,1,8.26,2,15.73,15.73,0,0,1,8.64,14.7c-.06,9.31.11,18.61.12,27.91q0,24.24,0,48.47c0,3.11-.52,3.64-3.61,3.63-8.11,0-16.22-.14-24.32-.14-10.23,0-20.47.13-30.7.14-7.55,0-15.11-.13-22.66-.13-6.37,0-12.73.1-19.1.13-2.71,0-3.34-.63-3.34-3.29q0-31.77,0-63.55c0-4.67-.21-9.36,0-14A16.35,16.35,0,0,1,33.47,48.9c3.84-4.47,8.58-5.87,14.11-5.81,3.89,0,7.78-.06,11.66,0m22.9,4.69v-.08c-11.94,0-23.87.16-35.8-.06-5.9-.11-13.28,5-12.73,12.82.16,2.27.33,4.54.33,6.8q0,32.58,0,65.17a4.2,4.2,0,0,0,0,1.59c.21.48.75,1.15,1.16,1.16,5.62.19,11.24.35,16.85.37,4,0,8-.29,12-.28,5.93,0,11.86.26,17.79.3,2.67,0,5.34-.31,8-.29,4.59,0,9.17.27,13.76.28,3.58,0,7.17-.25,10.75-.3,4.09-.05,8.18-.07,12.27,0,1.53,0,1.92-.51,1.91-2q0-36.77,0-73.54c0-2.86-.28-5.6-2.44-7.8s-4.46-4.13-7.67-4.15C106.27,47.78,94.2,47.82,82.14,47.82ZM66,42.92H96.46"/><path class="cls-1" d="M81,85.68h30.76c3,0,3.59.55,3.59,3.65v37.61c0,.4,0,.8,0,1.2-.14,1.34-1,2.28-2.22,2a4.37,4.37,0,0,1-2.22-1.85c-.33-.46-.15-1.3-.15-2,0-11.27-.06-22.53,0-33.79,0-1.91-.6-2.32-2.38-2.31q-27.26.08-54.5,0c-2,0-2.45.6-2.44,2.49q.12,16.89,0,33.79a4.92,4.92,0,0,1-1.15,3c-1.17,1.31-2.89.67-3.26-1.09a9,9,0,0,1-.09-1.8v-37c0-3.53.43-4,3.89-4Z"/><path class="cls-1" d="M67.7,126.09c-.55-4.47-1-8.58-1.55-12.69-.44-3.59-.93-7.18-1.33-10.78-.28-2.46.5-3.32,3-3.32q13.17,0,26.35,0c3.1,0,3.76.81,3.36,3.94q-1.32,10.06-2.61,20.13c-.1.79-.12,1.58-.2,2.73,2.42,0,4.67,0,6.92,0a4.92,4.92,0,0,1,2.36.18,3.42,3.42,0,0,1,1.62,2.13c.07.58-.87,1.63-1.55,1.84a13.47,13.47,0,0,1-4,.4q-17,0-34,0c-2.21,0-4.42-.08-6.63-.17-1.53-.06-2.92-.57-2.9-2.34s1.43-2.06,2.89-2.06Zm4.65,0c5.71,0,11.13,0,16.54-.07.43,0,1.12-1,1.21-1.56.62-4.17,1.12-8.36,1.65-12.55.32-2.57.62-5.14,1-7.88h-23C70.56,111.39,71.44,118.6,72.35,126.06Z"/><path class="cls-1" d="M87.14,66.73a4.66,4.66,0,1,1,9.32,0,4.66,4.66,0,1,1-9.32,0Z"/><path class="cls-1" d="M57.5,66.73A4.66,4.66,0,1,1,52.82,62,4.66,4.66,0,0,1,57.5,66.73Z"/><path class="cls-1" d="M107.7,64.42c1.67,0,3.34,0,5,0s2.65.7,2.59,2.37S114.22,69,112.76,69q-5.12,0-10.21,0c-1.57,0-2.64-.81-2.62-2.39s1.09-2.2,2.57-2.21c1.73,0,3.47,0,5.2,0Z"/><path class="cls-1" d="M68.56,69H63.73c-1.54,0-2.7-.61-2.75-2.26s1.11-2.34,2.63-2.36c3.42,0,6.84,0,10.26,0,1.49,0,2.48.79,2.44,2.33S75.27,69,73.78,69C72,69.05,70.3,69,68.56,69Z"/><path class="cls-1" d="M96.66,156.83a30.09,30.09,0,0,1-12-2.44,10.53,10.53,0,0,1-5.39-4.6,22,22,0,0,0,12.22,3.84c4.94,0,10.15-1.73,16.39-5.44l.23-.14-.9-1.28c-.48-.67-.91-1.28-1.34-1.91-6.54-9.6-7.41-19.58-2.61-29.65a61.5,61.5,0,0,1,8.64-13.16,83.28,83.28,0,0,1,29.92-22,44.86,44.86,0,0,1,18.37-4,50.58,50.58,0,0,1,15.18,2.44c.88.28,1.75.65,2.59,1l.58.25a25.94,25.94,0,0,0-11.78,7.81c-3.45,4.09-3.85,9.08-4.23,13.9l0,.53c-.12,1.43-.22,2.85-.32,4.28-.35,4.84-.71,9.85-1.53,14.69a30.92,30.92,0,0,1-13.61,20.86c-6.35,4.36-13.35,8.55-21.52,9.67a22.87,22.87,0,0,1-3.13.19c-1.18,0-2.41-.06-3.62-.14,10.22-8.1,16.43-19.25,19-34l.35-2.09L137,118.13c-.22.51-.44,1-.65,1.54-4.93,11.91-10.68,20.69-18.09,27.64-4.31,4-9.17,7.92-15.61,9A35.78,35.78,0,0,1,96.66,156.83Z"/><path class="cls-2" d="M160.21,75.85v.5h0a50.43,50.43,0,0,1,15.11,2.43,26.34,26.34,0,0,1,2.55,1,25.83,25.83,0,0,0-11.28,7.67c-3.51,4.15-3.9,9.18-4.29,14l0,.53c-.11,1.43-.22,2.85-.32,4.28-.35,4.84-.71,9.84-1.53,14.67a30.64,30.64,0,0,1-13.5,20.69c-6.32,4.35-13.29,8.52-21.41,9.63a22.52,22.52,0,0,1-3.1.19c-1,0-2,0-3-.1,10-8.11,16-19.18,18.54-33.79l.72-4.18L137,117.3l-.31.71c-.22.52-.45,1-.66,1.56-4.92,11.88-10.65,20.64-18,27.56-4.28,4-9.11,7.86-15.48,8.94a35.37,35.37,0,0,1-5.9.51,29.9,29.9,0,0,1-11.88-2.42,10.57,10.57,0,0,1-4.69-3.58,21.84,21.84,0,0,0,11.42,3.3c5,0,10.23-1.74,16.52-5.48l.46-.27-.31-.45-.74-1c-.48-.68-.91-1.29-1.34-1.92-6.48-9.52-7.36-19.42-2.59-29.4a60.94,60.94,0,0,1,8.6-13.1,83,83,0,0,1,29.83-21.93,44.74,44.74,0,0,1,18.27-3.94v-.5m0,0a44.94,44.94,0,0,0-18.47,4,83.57,83.57,0,0,0-30,22.06,61.78,61.78,0,0,0-8.68,13.21c-4.92,10.32-3.81,20.43,2.64,29.9.63.94,1.3,1.86,2.08,3-5.38,3.2-10.75,5.41-16.26,5.41A22.21,22.21,0,0,1,78.62,149a10.71,10.71,0,0,0,6,5.58,30.26,30.26,0,0,0,12.08,2.46,35.91,35.91,0,0,0,6-.52c6.32-1.07,11.22-4.84,15.73-9.07,8.28-7.76,13.85-17.34,18.15-27.73.31-.76.65-1.51,1-2.26-2.35,13.71-8.06,25.53-19.39,34.29,1.47.09,2.89.18,4.29.18a23.88,23.88,0,0,0,3.17-.19c8.13-1.12,15-5.16,21.62-9.71a31.19,31.19,0,0,0,13.71-21c1.07-6.25,1.35-12.65,1.86-19,.4-5.07.69-10.11,4.21-14.29a25.87,25.87,0,0,1,12.31-8c-1.27-.51-2.51-1.1-3.81-1.51a50.72,50.72,0,0,0-15.26-2.45Z"/></svg>