<svg id="Camada_1" data-name="Camada 1" xmlns="http://www.w3.org/2000/svg" viewBox="0 0 250 250"><defs><style>.cls-1{fill:#3cabd3;}.cls-2{fill:#379bbe;}.cls-3{fill:#62bcdb;}</style></defs><path class="cls-1" d="M189.3,146.14v12.57c-.84.48-.58,1.35-.7,2.06-2.18,13.12-7.42,24.73-16.75,34.35l-1.12,1.15-.08.09-1.14.92.07-.19-.77.77H169a1.65,1.65,0,0,0-1.51,1.5l-.49.41c-1.43-.15-2.51.66-3.65,1.31-20.36,11.64-41.37,12.64-62.12,2-18-9.27-29.47-24.38-33.58-44.53-1.16-5.69-2.27-11.46-.74-17.3q11.67-19.35,23.32-38.69,14.31-23.91,28.55-47.86c1.26-2.49,2.33-5.09,3.81-7.44,1.85-2.93,2.67-2.94,4.84-.3,6.85,8.32,13.81,16.55,20.39,25.07C161,89,173.17,106.6,182.38,126.1,185.42,132.55,187.28,139.36,189.3,146.14Zm-37.52,5.28a11.36,11.36,0,0,0,10.84-10.78c.06-5.85-4.73-10.43-10.88-10.4-5.78,0-10.71,4.82-10.67,10.37C141.11,146.4,146.14,151.48,151.78,151.42Z"/><path class="cls-2" d="M61,145.48c1.74-3.07,1.89-6.63,3.08-9.89,6.27-17.17,16-32.39,26.37-47.26,2.36-3.39,4.31-7.11,7.62-9.76.17,1.51-1,2.39-1.71,3.45-8.19,11.75-16.05,23.72-22.14,36.73-3.36,7.18-6.64,14.41-7.29,22.48-1.53,5.84-.42,11.61.74,17.3,4.11,20.15,15.54,35.26,33.58,44.53,20.75,10.66,41.76,9.66,62.12-2,1.14-.65,2.22-1.46,3.65-1.31-5.65,5.36-12.35,9-19.53,11.84-4.87,1.95-10.08,2.52-15.07,4H117.22c-.75-1.09-2-.73-3-.93-24.45-4.92-41-19.17-49.68-42.44-1.55-4.14-2.36-8.56-3.52-12.85Z"/><path class="cls-3" d="M151.78,151.42c-5.64.06-10.67-5-10.71-10.81,0-5.55,4.89-10.34,10.67-10.37,6.15,0,10.94,4.55,10.88,10.4A11.36,11.36,0,0,1,151.78,151.42Z"/><path class="cls-2" d="M169,197.86l-1.51,1.5A1.65,1.65,0,0,1,169,197.86Z"/><path class="cls-2" d="M171.85,195.12l-1.12,1.15Z"/><path class="cls-2" d="M170.65,196.36a1.35,1.35,0,0,1-1.14.92Z"/><path class="cls-2" d="M169.58,197.09c0,.53-.28.75-.77.78Z"/></svg>