<svg id="Camada_1" data-name="Camada 1" xmlns="http://www.w3.org/2000/svg" viewBox="0 0 200 200"><defs><style>.cls-1{fill:#fff;}</style></defs><title>Site Hoken - index</title><path class="cls-1" d="M98.43,39.09c5.32,0,10.26-.23,15.17.09a20.4,20.4,0,0,1,8.43,2,16.08,16.08,0,0,1,8.83,15c-.06,9.5.11,19,.12,28.5q0,24.75,0,49.5c0,3.17-.53,3.72-3.69,3.7-8.27,0-16.55-.14-24.83-.14-10.45,0-20.9.13-31.35.14-7.71,0-15.43-.13-23.14-.14-6.5,0-13,.11-19.5.14-2.77,0-3.42-.64-3.42-3.35q0-32.46,0-64.9c0-4.78-.21-9.57,0-14.33A16.71,16.71,0,0,1,29.28,45c3.92-4.56,8.76-6,14.41-5.93,4,0,7.94-.06,11.91,0M79,43.91v-.08c-12.19,0-24.38.16-36.56-.07-6-.11-13.56,5.09-13,13.1.16,2.32.34,4.63.34,7q0,33.27,0,66.54a4.14,4.14,0,0,0,0,1.62c.22.5.76,1.18,1.19,1.2,5.73.19,11.47.35,17.21.37,4.07,0,8.14-.3,12.21-.28,6,0,12.11.25,18.16.3,2.73,0,5.46-.31,8.18-.3,4.69,0,9.37.28,14.06.29,3.66,0,7.32-.25,11-.3,4.17-.06,8.35-.08,12.52,0,1.56,0,2-.52,2-2q-.06-37.55,0-75.09c0-2.92-.29-5.72-2.49-8S119.22,44,116,43.94C103.62,43.87,91.3,43.91,79,43.91Zm-16.53-5H93.6"/><path class="cls-1" d="M77.81,82.57h31.42c3.12,0,3.66.56,3.66,3.73q0,19.2,0,38.4a10.06,10.06,0,0,1,0,1.23c-.14,1.37-1,2.33-2.26,2.08a4.44,4.44,0,0,1-2.27-1.88c-.34-.47-.16-1.33-.16-2,0-11.5-.05-23,0-34.5,0-2-.61-2.37-2.44-2.36q-27.82.08-55.65,0c-2,0-2.5.61-2.49,2.55q.12,17.25,0,34.49a5,5,0,0,1-1.17,3.07c-1.2,1.34-3,.68-3.33-1.11a9.35,9.35,0,0,1-.09-1.84V86.63c0-3.61.44-4.06,4-4.06Z"/><path class="cls-1" d="M64.23,123.84c-.55-4.56-1.06-8.76-1.58-13-.45-3.67-.95-7.33-1.36-11-.28-2.52.52-3.4,3.08-3.4q13.45,0,26.91,0c3.16,0,3.84.82,3.42,4Q93.37,110.78,92,121.05c-.1.81-.12,1.62-.2,2.79,2.47,0,4.77,0,7.06,0a5.3,5.3,0,0,1,2.42.19A3.51,3.51,0,0,1,103,126.2c.07.6-.89,1.67-1.59,1.89a14.34,14.34,0,0,1-4,.41q-17.35,0-34.7,0c-2.25,0-4.51-.08-6.76-.17-1.57-.06-3-.58-3-2.39s1.46-2.1,3-2.1Zm4.75,0c5.84,0,11.37,0,16.9-.07.44,0,1.14-1,1.23-1.6.64-4.26,1.15-8.53,1.68-12.81.33-2.62.64-5.25,1-8H66.24C67.16,108.83,68.05,116.19,69,123.81Z"/><path class="cls-1" d="M84.08,63.22a4.76,4.76,0,1,1,9.52,0,4.82,4.82,0,0,1-4.74,4.89A4.87,4.87,0,0,1,84.08,63.22Z"/><path class="cls-1" d="M53.82,63.23a4.75,4.75,0,1,1-9.5.05,4.75,4.75,0,1,1,9.5-.05Z"/><path class="cls-1" d="M105.08,60.86c1.71,0,3.41,0,5.11,0s2.71.7,2.66,2.41c0,1.56-1.1,2.28-2.6,2.29-3.48,0-7,0-10.43,0-1.6,0-2.69-.82-2.67-2.44s1.11-2.25,2.62-2.26h5.31Z"/><path class="cls-1" d="M65.11,65.57H60.18c-1.57,0-2.75-.62-2.81-2.31s1.13-2.39,2.69-2.4q5.23,0,10.47,0A2.22,2.22,0,0,1,73,63.25c0,1.55-1.06,2.29-2.58,2.31C68.67,65.59,66.89,65.57,65.11,65.57Z"/><path class="cls-1" d="M175,83c-1.67,3.18-3.28,6.4-5.06,9.52a4.34,4.34,0,0,1-2.32,2,16.87,16.87,0,0,0-8.1,5c-8.11,8.3-16.38,16.45-24.59,24.65-.44.43-1,.77-1.64,1.31l5.24,4.41c-1.78,1.62-3,2.81-4.33,3.85a1.84,1.84,0,0,1-1.56,0,5.91,5.91,0,0,0-8.48,4.45,18.43,18.43,0,0,1-5.44,11c-3.47,3.48-6.89,7-10.47,10.38a6,6,0,0,1-3.43,1.43c-6,.47-12.78-6.3-12.28-12.31a6.38,6.38,0,0,1,1.57-3.56c3.23-3.45,6.66-6.71,10-10.08a19.92,19.92,0,0,1,11.34-6c4.91-.78,6.64-5,3.84-9.22l4.09-4.6,4.39,4.77c.45-.4.83-.69,1.16-1,9.05-9.19,18.14-18.34,27.07-27.64a14.76,14.76,0,0,0,2.69-5.14,4.57,4.57,0,0,1,2.83-2.83c2.79-1.11,5.55-2.3,8.26-3.6a2,2,0,0,1,2.84.57,24.17,24.17,0,0,0,2.4,2.22Zm-57.37,49.6L98,152.2l3.22,3.22,19.61-19.57Z"/><path class="cls-1" d="M114.93,78.53a53.76,53.76,0,0,1,5.91,1.79,20.8,20.8,0,0,1,11.67,25.48c-1,3.42-1.21,3.7-4.82,6.81l-4.17-5c-2.53,2.86-4.53,5.36-6.79,7.59a42.25,42.25,0,0,1-5.45,4.3,2.74,2.74,0,0,1-1.91.17c-10.24-2.23-16.21-10.1-17-17.62a2,2,0,0,0-.32-.63V97l1.62-6.19,14.85,15.06,11-11L104.44,80.08l6.06-1.55Z"/><path class="cls-1" d="M139.19,136.43l6.54-6.21L140.81,126l5-4.56c3.54,3.58,7.29,7.37,11,11.14,5.07,5.09,10.21,10.11,15.22,15.25,4.48,4.61,2.68,11.47-3.35,13.05-3,.78-5.42-.32-7.5-2.4l-12.77-12.76Zm30.69,15.71a4,4,0,0,0-4-4.27,4.39,4.39,0,0,0-4.43,4.25,4.25,4.25,0,0,0,4.41,4.21A3.86,3.86,0,0,0,169.88,152.14Z"/></svg>