<svg id="Camada_1" data-name="Camada 1" xmlns="http://www.w3.org/2000/svg" viewBox="0 0 250 250"><defs><style>.cls-1{fill:#fff;}</style></defs><path class="cls-1" d="M124.21,215.2a89.54,89.54,0,1,1,35-7.06A89.27,89.27,0,0,1,124.21,215.2Zm0-177.16a87.37,87.37,0,1,0,87.37,87.37A87.46,87.46,0,0,0,124.21,38Z"/><path class="cls-1" d="M176.27,113.4a17.44,17.44,0,0,1-3.06,10.15,17.09,17.09,0,0,1-7.46,6A31.31,31.31,0,0,1,155.27,132a3.21,3.21,0,0,1-3.59-3.75c.29-2.81,1.53-4,4.32-4.52a28.1,28.1,0,0,0,6.29-1.84c4.26-2,6.11-5.89,5.45-10.56-.74-5.23-3.38-9.39-7.13-13-.69-.67-1.38-1.36-2.12-2-8.13-6.82-12.55-15.75-14.76-25.94a55.2,55.2,0,0,1-1.27-13.8,4.05,4.05,0,0,1,4.95-3.94,3.69,3.69,0,0,1,3.25,4.11,53.09,53.09,0,0,0,3.13,18.47,32,32,0,0,0,10.53,15.15,30.52,30.52,0,0,1,11.38,18.38C176,110.34,176.09,111.88,176.27,113.4Z"/><path class="cls-1" d="M105.8,59.31c-.38,10.67-2.89,20.68-9,29.6-2.51,3.62-5.88,6.39-9,9.38-3.74,3.56-6.45,7.68-7.23,12.92-.72,4.89,1.21,8.84,5.72,10.85a22.44,22.44,0,0,0,6,1.67,4.77,4.77,0,0,1,4.38,4.64A3.3,3.3,0,0,1,93,132.06c-5.48-.51-10.75-1.78-15.07-5.41a15.32,15.32,0,0,1-5.75-11.4c-.39-9.38,3.2-17.11,10.1-23.32,2.93-2.64,6-5.1,8.19-8.48,4-6.27,6-13.24,6.81-20.55a57.81,57.81,0,0,0,.28-6c0-2.51,1.47-4.11,3.85-4.18a4,4,0,0,1,4.39,4.08C105.82,57.62,105.8,58.47,105.8,59.31Z"/><path class="cls-1" d="M98.31,108a11.7,11.7,0,0,1,9.5,4.72c1.67,2.06,3.11,4.3,4.75,6.39a33.63,33.63,0,0,0,3.88,4.44,11.34,11.34,0,0,0,15.92-.58,82.2,82.2,0,0,0,5.46-7c.73-1,1.41-2,2.18-2.88,5-5.89,12.3-6.75,18.53-2.18a4.48,4.48,0,0,1,1.13,6.3,3.34,3.34,0,0,1-5,1,19.86,19.86,0,0,0-2.16-1.33c-2.37-1.19-4.11-.9-5.77,1.17a55.94,55.94,0,0,0-3.28,4.77,27.08,27.08,0,0,1-11.34,10c-6.83,3.21-13.33,2.21-19.44-1.95a28.1,28.1,0,0,1-8.23-8.55,32.53,32.53,0,0,0-3.39-4.67c-1.53-1.74-3-1.92-5.12-.92a12.26,12.26,0,0,0-2,1.16c-1.29,1-2.65,1.47-4.13.54A4.48,4.48,0,0,1,87.74,114a4.07,4.07,0,0,1,1.79-3A15,15,0,0,1,98.31,108Z"/><path class="cls-1" d="M125.86,162.18a68.82,68.82,0,0,1-2,16.5c-1.36,5.09-3.36,9.89-7.07,13.82a21.88,21.88,0,0,1-7.36,5.15c-2.32,1-4.07.49-5-1.43a4.52,4.52,0,0,1,1.49-5.87,1.43,1.43,0,0,1,.21-.12c5.85-2.32,8.31-7.21,9.89-12.84,1.64-5.82,1.68-11.76,1.52-17.72,0-1.73-.2-3.45-.33-5.18-.2-2.63,1-4.15,3.35-4.36a4.32,4.32,0,0,1,4.81,3.74C125.57,156.64,125.69,159.41,125.86,162.18Z"/><path class="cls-1" d="M109.34,142.92c-.13,7.59-1.51,14.89-5.3,21.57-4.28,7.51-10.58,12.08-19.33,13-2.6.27-4.07-.78-4.42-3.12a4.31,4.31,0,0,1,3.36-5c.83-.16,1.68-.2,2.51-.37,5.5-1.14,9-4.67,11.42-9.54,2.73-5.58,3.55-11.57,3.58-17.71,0-.52,0-1.05,0-1.57,0-2.47,1.3-4,3.58-4.13a4.08,4.08,0,0,1,4.62,3.74C109.42,140.82,109.34,141.88,109.34,142.92Z"/><path class="cls-1" d="M139,150.78c.23-3,.38-5.25.59-7.54.23-2.51,1.28-3.7,3.23-3.79a4.66,4.66,0,0,1,4.73,3.52,8.69,8.69,0,0,1,.08,2.28c-.44,5.34-.34,10.63,1.38,15.76a14.25,14.25,0,0,0,7.23,8.66c2.35,1.18,3,2.79,2.15,4.87-1,2.28-3.54,3.53-5.66,2.48a24.14,24.14,0,0,1-5.33-3.46c-4.21-3.73-6.32-8.68-7.32-14.1C139.54,156.39,139.33,153.25,139,150.78Z"/></svg>