<svg id="Camada_1" data-name="Camada 1" xmlns="http://www.w3.org/2000/svg" viewBox="0 0 250 250"><defs><style>.cls-1{fill:#3cabd3;}</style></defs><path class="cls-1" d="M102.53,35.61c.94,1.73,2,3.42,2.78,5.22a5.46,5.46,0,0,1,0,2.76c-.7,4.83.52,7.93,5.47,10.51,7.61,4,11.39,11.17,11.69,19.9.13,3.84,0,7.68.06,11.52,0,2.49-1.1,4.13-3.71,4.16s-3.72-1.59-3.79-4.09c-.13-4.49.11-9-.56-13.45A16.55,16.55,0,0,0,98,57.85c-5.82-.12-11.66-.12-17.48,0-9.24.15-16,6.23-17.27,15.39a32.62,32.62,0,0,0-.19,4c0,5.94,0,11.88,0,18.23,1.71.09,3.12.22,4.52.22,9,0,18,0,27,0,2.65,0,5,.53,5.08,3.64,0,3.28-2.25,4-5.15,4-10.31-.08-20.63,0-31.2,0v42.86h4.17c11.26,0,22.52,0,33.78,0,3,0,5.68.58,5.71,3.95s-2.69,4-5.65,4c-12.57-.05-25.15,0-38.28,0v12.43c0,6.35-.11,12.71,0,19.06.18,7.51,4.75,12.64,11.67,13.07a5.81,5.81,0,0,0,4-1.57c6.45-6.52,14.26-6.7,20.41.11,2.4,2.66,4.76,1.51,7.2,1,1.37-.31,2.6-1.76,3.9-1.78,1.61,0,4,.47,4.63,1.56s.1,3.89-.92,4.74c-4.9,4.09-10.89,4.46-16.92,3.7-1.09-.14-2.21-1.72-2.93-2.88-2.83-4.55-7.47-4.81-9.91-.21-1.41,2.65-3.27,3.23-6,3.42-13.33.91-23-9.5-22.84-22.57.46-35.75.23-71.51.11-107.26,0-11.54,4.84-19.69,15.16-24.79a5.11,5.11,0,0,0,2.13-3.54c.34-2.47-.23-5.08.21-7.52.34-1.86,1.65-3.54,2.53-5.3Zm-21.88,8v5.94H97.47V43.64Z"/><path class="cls-1" d="M144.65,214.39c-4.25-.79-8.54-1.44-12.75-2.44a12,12,0,0,1-5.63-2.61c-1.08-1.08-1.85-3.81-1.21-4.92s3.54-2,4.85-1.49c13.08,5.24,26.33,4.28,39.67,1.58a11.39,11.39,0,0,0,3.27-1.36c2.34-1.34,4.49-1.18,5.75,1.23a3.69,3.69,0,0,1-2.19,5.51c-4.46,1.51-9.07,2.55-13.62,3.75-1.26.32-2.55.5-3.83.75Z"/><path class="cls-1" d="M152.25,201c-7.66-1.19-14.47-2-21.16-3.38-4.93-1-7.75-4.1-8.67-9.47C118.13,163.08,113.52,138,109,113c-1.09-6,0-9.32,5.83-11.31a105.78,105.78,0,0,1,22.22-5.18c15.18-1.68,30.38-1.27,45.29,2.68a30.6,30.6,0,0,1,4.85,1.69c6.74,3.08,8.31,6.4,7.05,13-4.89,25.39-9.28,50.88-13.77,76.35a8,8,0,0,1-6.41,6.77C166.66,198.61,159.13,199.78,152.25,201Zm-33.76-82a16.51,16.51,0,0,0,0,2.83c3.91,21.69,7.81,43.39,11.92,65a5.5,5.5,0,0,0,3.38,3.46,75,75,0,0,0,35.72.12c2.3-.53,3.38-1.76,3.82-4.28,2.68-15.61,5.6-31.18,8.41-46.77,1.21-6.71,2.35-13.43,3.58-20.52A138.22,138.22,0,0,1,118.49,119Zm-2.21-10.47c11.41,9.16,63.44,8.33,70.26-.18A118.63,118.63,0,0,0,116.28,108.57Z"/><path class="cls-1" d="M85.2,64.15c.55.6,2.43,1.76,2.91,3.34.73,2.42-1,3.93-3.45,4.26-5,.68-7.07,3.69-7.76,8.5-.2,1.4-2.49,3.52-3.77,3.48s-3.39-2.19-3.64-3.67C68.25,72.72,76.12,64.14,85.2,64.15Z"/><path class="cls-1" d="M77.08,125.54c0,2,.44,4.12-.15,5.91-.47,1.43-2.27,3.49-3.35,3.41-1.46-.1-3.82-1.85-4-3.13a51.22,51.22,0,0,1,0-12.25c.15-1.31,2.45-3.47,3.5-3.33,1.47.2,3.27,2,3.86,3.5.67,1.72.15,3.91.15,5.89Z"/><path class="cls-1" d="M166.51,142c-3.27,0-5.47-.81-5.53-3.81s1.94-4,4.69-4,4.84,1,5,3.82S168.58,141.91,166.51,142Z"/><path class="cls-1" d="M160.65,161.89c2.64-.09,4.65,1.07,4.58,4-.07,2.76-2.15,3.71-4.69,3.7s-4.87-.68-4.89-3.86S157.85,161.89,160.65,161.89Z"/><path class="cls-1" d="M148.54,143.52c2.8-.16,4.86.93,4.75,3.91s-2.47,3.66-5.11,3.63-4.5-.92-4.49-3.79C143.7,144.13,145.83,143.36,148.54,143.52Z"/></svg>