<svg id="Camada_1" data-name="Camada 1" xmlns="http://www.w3.org/2000/svg" viewBox="0 0 250 250"><defs><style>.cls-1{fill:#00a9ea;}</style></defs><path class="cls-1" d="M67,213.72H61.15c0-.59-.1-1.13-.1-1.66,0-14.92-.06-29.84,0-44.76a60.76,60.76,0,0,1,16.19-41.55c1.59-1.75,1.19-3.31-1.09-4-18.36-6-31.28-21.39-33.18-41.92C41.46,63.2,51.94,49.14,68.26,45.31c12.73-3,25.5-5.82,38.26-8.72.53-.12,1.08-.2,1.68-.31.3,4.45.14,8.75-1.72,12.86a4.3,4.3,0,0,0-.27,2.6c1.38,5.79,2.85,11.55,4.33,17.31a2.92,2.92,0,0,0,.94,1.67c3.22,2,6.5,3.94,9.79,5.9.15-.18.26-.26.28-.35,1.1-4.76,4.27-7.11,8.83-8.59,19.74-6.4,39.39-13.06,59.08-19.61,5.9-2,10.42.33,12.41,6.27q2.34,7,4.65,14c1.82,5.56-.3,10-5.8,12.06q-14,5.36-28,10.74c-.57.22-1.13.46-1.86.76,1,4.41,2,8.76,3,13.11,2.57,11.36,5.28,22.69,7.67,34.08a20.09,20.09,0,0,1-13.28,23.12c-9.29,3.16-18.72,5.93-28.09,8.87l-2.44.8v41.84h-5.73v-2c0-11.12.05-22.23,0-33.34-.07-12.16-5.16-21.74-15.45-28.25-11.27-7.12-22.73-13.92-34.21-20.93A50.32,50.32,0,0,0,74,140.35a55.67,55.67,0,0,0-7,27.33q0,21.91,0,43.83ZM101.19,56.13c-3.63,3.14-7.75,4.41-12.08,5.26-2.53.5-5,1.13-7.54,1.73a11.4,11.4,0,0,0-9,12.08C78,76.12,81.8,79,83,84.49c1.28,6-1.34,10.33-6.43,13.34,2.43,8.11,4.8,16.1,7.27,24.06a4.63,4.63,0,0,0,1.79,2.32c6.62,4.14,13.29,8.17,20,12.23.46.27.94.5,1.58.85-.06-.52-.08-.82-.14-1.11-1.33-7.36-2.69-14.72-4-22.08a5.81,5.81,0,0,1,4.42-6.84c1.72-.45,3.48-.73,5.22-1.1,2.51-.54,3.37-1.93,2.68-4.43-1.39-5-2.81-9.9-4.22-14.85-.16-.56-.29-1.13-.44-1.74l8.51-2.89c-4.15-2.48-7.91-4.77-11.73-7a4.19,4.19,0,0,1-2.19-2.92C104,67,102.61,61.77,101.19,56.13Zm59.33,33c.42-.12.88-.23,1.33-.4q18.59-7,37.18-14.06c2.1-.8,2.66-2.09,2-4.24-1.55-4.71-3.14-9.41-4.72-14.11-1-3-2.13-3.53-5.12-2.54q-12.4,4.11-24.8,8.25c-.44.14-.85.38-1.31.58.34,1.44.67,2.75,1,4.06a8.61,8.61,0,0,1-5.15,10.08c-4.37,1.78-8.79,3.46-13.27,5a8.71,8.71,0,0,1-11.19-6c-.33-1.1-.6-2.23-.92-3.45-2,.66-3.88,1.17-5.67,2a3.7,3.7,0,0,0-1.86,1.86c-1,2.79-2.35,5.56-1.92,8.69.15,1.1-.3,1.61-1.37,1.93-2.27.67-4.51,1.49-6.83,2.27l1.73,5.93c2-.67,4-1.24,5.84-2a2,2,0,0,1,2.55.65,35.73,35.73,0,0,0,3.65,3.63,3.77,3.77,0,0,0,2.43,1c2.66-.33,5.29-.94,7.89-1.44-.21-8,1.45-10.8,7.46-12.77C153.6,82.63,157.14,84.22,160.52,89.1Zm-85,26.09L69.24,94c1.53-.53,2.88-1,4.18-1.46a5.83,5.83,0,0,0,3.84-6.74,5.91,5.91,0,0,0-5.85-4.66c-1.28,0-2.56,0-3.86,0-.2-.82-.37-1.47-.5-2.12C64.88,68.29,70.52,59.6,81.23,57.16c3.17-.72,6.34-1.46,9.51-2.2a14.59,14.59,0,0,0,7.84-4.54,12.75,12.75,0,0,0,3.34-6.64c-.48.07-.79.09-1.08.15-10.65,2.43-21.33,4.75-31.95,7.32a25.67,25.67,0,0,0-20,24c-.44,10.85,3.33,20.46,10.43,28.69A40,40,0,0,0,75.56,115.19ZM165.2,93.86l-3.24,1a5.41,5.41,0,0,1-6.89-3c-1.07-2.16-2.34-2.81-4.21-2.15-2.78,1-3.65,2.25-3.12,4.74,2.14,10.13,4.32,20.25,6.47,30.38a8.3,8.3,0,0,1-2.41,8.08,1.89,1.89,0,0,0-.51,2.37c2.54,6.84,5,13.69,7.52,20.54.33.91.66,1.81,1,2.83,2.1-.65,4-1.2,5.94-1.87a14.55,14.55,0,0,0,9.77-17.2c-2.22-10.24-4.6-20.44-6.92-30.66C167.51,104,166.38,99.05,165.2,93.86Zm-52.1,42.82c11.14-2.38,22-4.67,32.86-7,2.06-.45,2.85-1.91,2.4-4q-2.33-11-4.7-21.93a6.48,6.48,0,0,0-.46-1.14c-1.13.23-2.15.47-3.18.63a48.12,48.12,0,0,1-6.72,1c-3,0-5.17-1.72-7-3.86a1.8,1.8,0,0,0-2.39-.59c-.82.38-1.71.61-2.54.9a3.33,3.33,0,0,0,0,.67c.82,5.39-1.87,9.38-7.2,10.6-1.72.39-3.45.74-5.32,1.14C110.23,120.92,111.64,128.69,113.1,136.68Zm41.08,23.77c-3-8.32-6-16.36-9-24.59l-29.58,6.33c9.84,5.57,16.9,13.22,20.44,23.93Zm-13-90.07c.33,1.31.56,2.5.93,3.65A2.83,2.83,0,0,0,146,76c4.15-1.47,8.27-3,12.39-4.61a2.75,2.75,0,0,0,1.9-3.19c-.19-1.24-.58-2.45-.93-3.85Z"/><path class="cls-1" d="M75.94,163.77h5.73v23.35h29.54V163.78H117v29.28l-2.75.18v20.4h-5.92V193.26H84.78v20.4h-6V193.2H75.94Z"/><path class="cls-1" d="M191,93.47c2.78,4.25,5.68,8.08,7.89,12.28a9.11,9.11,0,0,1-1.17,10.53,8.35,8.35,0,0,1-9.31,2.78c-5.7-1.63-8.15-8.72-5-14.21.25-.42.52-.83.79-1.24Zm0,10.64c-1,1.57-1.9,2.75-2.59,4a4,4,0,0,0,.72,4.72,2.77,2.77,0,0,0,3.55.14,3.79,3.79,0,0,0,1-4.65C193,107,192,105.7,191,104.11Z"/><path class="cls-1" d="M196.89,143.58c2.72,4.14,5.36,7.9,7.73,11.83a10,10,0,0,1-.89,10.91,8.87,8.87,0,0,1-9.47,2.86c-5.55-1.7-8.16-8.62-5-13.92C191.52,151.37,194.18,147.68,196.89,143.58Zm0,10.66c-1,1.56-1.93,2.79-2.62,4.13a3.86,3.86,0,0,0,.86,4.7,2.78,2.78,0,0,0,3.58-.07,3.88,3.88,0,0,0,.83-4.56C198.85,157.08,197.92,155.85,196.89,154.24Z"/><path class="cls-1" d="M170.36,181.87c2.8,4.37,5.7,8.33,8,12.62a9.44,9.44,0,0,1-2.44,11.39,8.83,8.83,0,0,1-10.47.55,9.86,9.86,0,0,1-3.21-12.14,17.12,17.12,0,0,1,1.2-2.07C165.67,188.87,167.92,185.52,170.36,181.87Zm0,10.67c-1,1.54-1.92,2.75-2.63,4.07a4,4,0,0,0,.77,4.71,2.78,2.78,0,0,0,3.56.08,3.84,3.84,0,0,0,.93-4.66C172.28,195.39,171.35,194.16,170.33,192.54Z"/><path class="cls-1" d="M100.72,74.94l-5.89,2.93-2.64-5.25,5.88-3Z"/></svg>